<?xml version="1.0" encoding="utf-8"?>
<!-- Generator: Adobe Illustrator 16.0.4, SVG Export Plug-In . SVG Version: 6.00 Build 0)  -->
<!DOCTYPE svg PUBLIC "-//W3C//DTD SVG 1.1//EN" "http://www.w3.org/Graphics/SVG/1.1/DTD/svg11.dtd">
<svg version="1.1" id="Layer_1" xmlns="http://www.w3.org/2000/svg" xmlns:xlink="http://www.w3.org/1999/xlink" x="0px" y="0px"
	 width="15px" height="11.25px" viewBox="42.5 44.375 15 11.25" enable-background="new 42.5 44.375 15 11.25" xml:space="preserve"
	>
<path fill="#A9ACA0" d="M57.5,53.75c0,0.329-0.093,0.634-0.241,0.901l-4.735-5.299l4.685-4.099c0.183,0.289,0.292,0.629,0.292,0.996
	V53.75z M50,50.315l6.519-5.704c-0.268-0.146-0.568-0.236-0.894-0.236h-11.25c-0.326,0-0.626,0.09-0.893,0.236L50,50.315z
	 M51.817,49.97l-1.509,1.321C50.22,51.368,50.11,51.406,50,51.406s-0.22-0.038-0.309-0.115l-1.509-1.321l-4.796,5.367
	c0.288,0.18,0.625,0.288,0.989,0.288h11.25c0.364,0,0.701-0.108,0.988-0.288L51.817,49.97z M42.792,45.254
	C42.61,45.543,42.5,45.883,42.5,46.25v7.5c0,0.329,0.092,0.634,0.241,0.901l4.736-5.3L42.792,45.254z"/>
</svg>
