<?xml version="1.0" encoding="utf-8"?>
<!-- Generator: Adobe Illustrator 16.0.4, SVG Export Plug-In . SVG Version: 6.00 Build 0)  -->
<!DOCTYPE svg PUBLIC "-//W3C//DTD SVG 1.1//EN" "http://www.w3.org/Graphics/SVG/1.1/DTD/svg11.dtd">
<svg version="1.1" id="All_glyphs" xmlns="http://www.w3.org/2000/svg" xmlns:xlink="http://www.w3.org/1999/xlink" x="0px" y="0px"
	 width="18px" height="15.299px" viewBox="0 0 18 15.299" enable-background="new 0 0 18 15.299" xml:space="preserve">
<path fill="#129284" d="M17.406,10.388l-2.865-1.929h-1.767l3.06,2.349h-3.19c-0.091,0-0.174,0.046-0.215,0.119l-0.735,2.012H6.307
	l-0.735-2.012c-0.041-0.073-0.125-0.119-0.215-0.119h-3.19l3.061-2.349H3.459l-2.865,1.929c-0.427,0.255-0.682,0.841-0.567,1.304
	l0.505,2.767c0.115,0.463,0.622,0.841,1.126,0.841h14.682c0.505,0,1.012-0.378,1.126-0.841l0.505-2.767
	C18.088,11.229,17.833,10.643,17.406,10.388z M13.681,4.607h-2.97V0h-3.42v4.607H4.32L9,9L13.681,4.607z"/>
</svg>
