<?xml version="1.0" encoding="utf-8"?>
<!-- Generator: Adobe Illustrator 16.0.4, SVG Export Plug-In . SVG Version: 6.00 Build 0)  -->
<!DOCTYPE svg PUBLIC "-//W3C//DTD SVG 1.1//EN" "http://www.w3.org/Graphics/SVG/1.1/DTD/svg11.dtd">
<svg version="1.1" id="All_glyphs" xmlns="http://www.w3.org/2000/svg" xmlns:xlink="http://www.w3.org/1999/xlink" x="0px" y="0px"
	 width="20px" height="16px" viewBox="0 0 20 16" enable-background="new 0 0 20 16" xml:space="preserve">
<g>
	<path fill="#CC8600" d="M19.682,3.024l-4.673-2.927c-0.207-0.13-0.466-0.13-0.673,0L10,2.813L5.663,0.098
		c-0.207-0.13-0.466-0.13-0.673,0L0.317,3.024C0.12,3.147,0,3.37,0,3.61v11.707c0,0.246,0.127,0.473,0.332,0.595
		c0.205,0.121,0.456,0.118,0.659-0.009l4.336-2.716l4.336,2.716c0.208,0.129,0.466,0.129,0.673,0l4.336-2.716l4.336,2.716
		C19.112,15.968,19.229,16,19.346,16c0.111,0,0.222-0.03,0.322-0.089C19.873,15.79,20,15.563,20,15.317V3.61
		C20,3.37,19.879,3.147,19.682,3.024z M4.673,12.004l-3.364,2.107V3.997l3.364-2.107V12.004z M9.346,14.111l-3.364-2.107V1.889
		l3.364,2.107V14.111z M14.019,12.004l-3.364,2.107V3.997l3.364-2.107V12.004z M18.691,14.111l-3.364-2.107V1.889l3.364,2.107
		V14.111z"/>
</g>
</svg>
