<?xml version="1.0" encoding="utf-8"?>
<!-- Generator: Adobe Illustrator 16.0.0, SVG Export Plug-In . SVG Version: 6.00 Build 0)  -->
<!DOCTYPE svg PUBLIC "-//W3C//DTD SVG 1.1//EN" "http://www.w3.org/Graphics/SVG/1.1/DTD/svg11.dtd">
<svg version="1.1" id="Capa_1" xmlns="http://www.w3.org/2000/svg" xmlns:xlink="http://www.w3.org/1999/xlink" x="0px" y="0px"
	 width="32px" height="28px" viewBox="0 0 32 28" enable-background="new 0 0 32 28" xml:space="preserve">
<g>
	<g>
		<path fill="#303630" d="M15.972,1.702c3.448,0,6.887,0.002,9.762,0.006c2.074,0.003,3.436,1.358,3.449,3.41
			c0.006,2.083-0.023,10.908-0.008,12.988c0.01,1.604-0.621,2.549-2.504,2.823c-0.203,0.041-0.378,0.049-0.585,0.049
			c-0.14,0-0.294-0.004-0.481-0.004c-0.239,0-0.533,0.006-0.92,0.033c-1.123,0.949-2.48,2.076-4.287,3.447c0-1.995,0-1.511,0-3.405
			c-0.248,0-0.461,0-0.672,0c-4.201,0-9.565,0-13.768,0c-1.912,0-3.308-1.172-3.518-3.033c-0.081-0.716,0.004-1.458,0.005-2.185
			C2.45,14.52,2.438,6.468,2.45,5.158c0.02-2.097,1.361-3.445,3.464-3.448C8.871,1.705,12.426,1.702,15.972,1.702 M15.972,0.002
			c-3.547,0-7.103,0.002-10.061,0.007C2.901,0.014,0.779,2.125,0.75,5.142c-0.007,0.803-0.006,4.123-0.004,6.887
			c0,1.756,0.001,3.288,0,3.798c0,0.224-0.01,0.447-0.019,0.67c-0.021,0.519-0.044,1.105,0.024,1.712
			c0.307,2.716,2.399,4.542,5.208,4.542h12.74v1.705v3.424l2.728-2.069c1.6-1.214,2.869-2.254,3.916-3.132
			c0.096-0.002,0.184-0.003,0.264-0.003l0.257,0.002l0.225,0.002c0.253,0,0.532-0.01,0.871-0.073c2.579-0.39,3.934-1.948,3.918-4.51
			c-0.01-1.215-0.003-4.763,0.003-7.894c0.004-2.214,0.007-4.227,0.005-5.089c-0.021-3.004-2.137-5.101-5.147-5.105
			C22.86,0.004,19.42,0.002,15.972,0.002L15.972,0.002z"/>
	</g>
</g>
<g>
	<path fill="#303630" d="M7.083,19.961c-1.419,0-2.414-1.041-2.414-2.436c0-1.467,0.994-2.459,2.414-2.459
		c1.442,0,2.412,0.992,2.436,2.459c0,1.395-0.97,2.436-2.413,2.436H7.083z M5.521,13.673L4.906,3.242h4.399L8.69,13.673H5.521z"/>
</g>
<g>
	<rect x="12.117" y="5.201" fill="#303630" width="14.36" height="1.517"/>
	<rect x="12.117" y="8.939" fill="#303630" width="14.358" height="1.518"/>
	<rect x="12.117" y="12.679" fill="#303630" width="14.358" height="1.518"/>
	<rect x="12.117" y="16.418" fill="#303630" width="14.358" height="1.516"/>
</g>
<g>
	<path fill="#303630" d="M42.086,25.998h-1.971c-0.437,0-0.688-0.339-0.688-0.778L39.326,5.616l-6.064,1.342l4.318,19.458
		c0.226,0.491,0.66,0.887,1.154,1.137c0.422,0.215,0.897,0.321,1.338,0.252l11.407-1.808L42.086,25.998L42.086,25.998z"/>
	<rect x="41.623" y="4.354" fill="#303630" width="19.513" height="2.788"/>
	<rect x="41.623" y="9.929" fill="#303630" width="11.15" height="5.574"/>
	<rect x="54.166" y="9.929" fill="#303630" width="6.97" height="1.394"/>
	<rect x="54.166" y="14.109" fill="#303630" width="6.97" height="1.394"/>
	<rect x="41.623" y="18.29" fill="#303630" width="19.513" height="1.395"/>
	<rect x="41.623" y="22.473" fill="#303630" width="19.513" height="1.394"/>
	<g>
		<path fill="none" d="M39.432,2.716L39.43,2.991L39.421,25.22c0,0.439,0.253,0.778,0.688,0.778h22.627
			c0.435,0,0.787-0.354,0.787-0.794V3.02V2.716c0-0.101-0.021-0.195-0.057-0.286h0.057V1.916H39.43V2.43h0.059
			C39.455,2.52,39.432,2.615,39.432,2.716z"/>
		<path fill="#303630" d="M63.525,2.716V3.02h-0.002l0.002,22.185c0,0.439-0.354,0.793-0.789,0.793H40.109
			c-0.436,0-0.688-0.338-0.688-0.777L39.43,2.991V2.43h-1.732V2.367l-0.023,23.289c0,1.21,0.884,2.171,2.087,2.171h23.211
			c1.201,0,2.289-0.984,2.289-2.191V2.431h-1.737v0.285H63.525z"/>
		<polygon fill="#303630" points="63.085,0.172 39.871,0.172 37.697,0.172 37.697,2.367 37.697,2.431 39.43,2.431 39.43,1.916 
			63.525,1.916 63.525,2.431 65.262,2.431 65.262,0.172 		"/>
		<polygon fill="#303630" points="63.525,3.02 63.525,2.716 63.523,3.02 		"/>
	</g>
</g>
<g>
</g>
<g>
</g>
<g>
</g>
<g>
</g>
<g>
</g>
<g>
</g>
</svg>
