<?xml version="1.0" encoding="utf-8"?>
<!-- Generator: Adobe Illustrator 16.0.4, SVG Export Plug-In . SVG Version: 6.00 Build 0)  -->
<!DOCTYPE svg PUBLIC "-//W3C//DTD SVG 1.1//EN" "http://www.w3.org/Graphics/SVG/1.1/DTD/svg11.dtd">
<svg version="1.1" id="Capa_1" xmlns="http://www.w3.org/2000/svg" xmlns:xlink="http://www.w3.org/1999/xlink" x="0px" y="0px"
	 width="160px" height="35.982px" viewBox="0 0 160 35.982" enable-background="new 0 0 160 35.982" xml:space="preserve">
<g>
	<g>
		<path fill="#E0DED6" d="M49.283,21.067c0.156,0.362,0.384,0.65,0.682,0.863c0.299,0.213,0.654,0.366,1.066,0.458
			c0.412,0.093,0.86,0.139,1.343,0.139c0.341,0,0.683-0.042,1.024-0.128s0.65-0.213,0.927-0.384c0.277-0.17,0.505-0.391,0.683-0.661
			s0.267-0.597,0.267-0.981c0-0.37-0.114-0.672-0.341-0.906c-0.228-0.235-0.522-0.437-0.885-0.608
			c-0.363-0.17-0.775-0.32-1.237-0.448c-0.462-0.128-0.928-0.263-1.397-0.405c-0.483-0.142-0.953-0.312-1.407-0.512
			c-0.456-0.199-0.864-0.455-1.227-0.768c-0.362-0.312-0.654-0.696-0.874-1.152c-0.221-0.455-0.331-1.009-0.331-1.663
			c0-0.853,0.178-1.578,0.533-2.175c0.355-0.597,0.817-1.084,1.386-1.461c0.568-0.376,1.211-0.653,1.93-0.832
			c0.718-0.177,1.446-0.267,2.186-0.267c0.782,0,1.517,0.089,2.207,0.267c0.689,0.178,1.293,0.466,1.812,0.864
			c0.519,0.398,0.931,0.906,1.237,1.525c0.306,0.618,0.458,1.368,0.458,2.25H56.15c0.014-0.426-0.046-0.785-0.181-1.077
			c-0.136-0.292-0.328-0.53-0.576-0.714c-0.249-0.185-0.543-0.316-0.885-0.395s-0.704-0.117-1.088-0.117
			c-0.312,0-0.629,0.032-0.949,0.096s-0.608,0.171-0.864,0.32c-0.256,0.149-0.462,0.345-0.618,0.586
			c-0.157,0.242-0.235,0.541-0.235,0.896c0,0.37,0.139,0.679,0.416,0.927c0.277,0.249,0.611,0.455,1.002,0.619
			c0.391,0.164,0.792,0.292,1.205,0.384c0.412,0.093,0.747,0.167,1.002,0.224c0.597,0.156,1.144,0.337,1.642,0.543
			c0.497,0.207,0.927,0.473,1.29,0.8c0.362,0.327,0.643,0.725,0.842,1.194c0.199,0.469,0.298,1.045,0.298,1.727
			c0,0.91-0.188,1.685-0.565,2.325c-0.377,0.64-0.86,1.159-1.45,1.557s-1.255,0.686-1.994,0.864
			c-0.739,0.177-1.472,0.267-2.197,0.267c-2.132,0-3.721-0.434-4.766-1.301c-1.045-0.867-1.567-2.232-1.567-4.095h3.177
			C49.062,20.253,49.126,20.705,49.283,21.067z"/>
		<path fill="#E0DED6" d="M61.545,15.352c0.327-0.462,0.725-0.835,1.194-1.12c0.469-0.284,0.995-0.487,1.578-0.608
			c0.583-0.121,1.187-0.181,1.813-0.181c0.498,0,1.016,0.036,1.557,0.106c0.54,0.071,1.038,0.21,1.493,0.416
			c0.455,0.207,0.828,0.498,1.12,0.875c0.291,0.377,0.43,0.878,0.416,1.503c0,0.526-0.078,1.145-0.234,1.855l-0.981,4.436
			c-0.057,0.199-0.096,0.444-0.117,0.735c-0.021,0.292-0.032,0.544-0.032,0.757c0,0.185,0.035,0.398,0.107,0.64h-3.028V23.68
			c-0.413,0.469-0.917,0.814-1.514,1.034s-1.215,0.331-1.855,0.331c-0.597,0-1.12-0.079-1.567-0.235s-0.821-0.366-1.12-0.629
			c-0.299-0.263-0.52-0.569-0.661-0.917c-0.142-0.348-0.213-0.714-0.213-1.098c0-1.066,0.366-1.919,1.099-2.559
			c0.732-0.64,1.766-1.038,3.103-1.194c0.71-0.085,1.329-0.149,1.855-0.192s0.963-0.11,1.312-0.203
			c0.349-0.092,0.608-0.227,0.778-0.405c0.171-0.178,0.256-0.444,0.256-0.8c0-0.284-0.063-0.512-0.191-0.682
			c-0.128-0.17-0.288-0.306-0.48-0.405c-0.192-0.099-0.398-0.167-0.619-0.203c-0.221-0.035-0.43-0.053-0.629-0.053
			c-0.541,0-1.023,0.132-1.45,0.395c-0.426,0.263-0.689,0.672-0.789,1.226h-2.836C61.004,16.394,61.218,15.814,61.545,15.352z
			 M66.065,19.895c-0.44,0.05-0.881,0.089-1.322,0.117c-0.285,0.028-0.562,0.074-0.832,0.138c-0.271,0.064-0.509,0.16-0.714,0.288
			c-0.207,0.128-0.374,0.302-0.501,0.522c-0.128,0.221-0.192,0.501-0.192,0.842c0,0.413,0.167,0.722,0.501,0.928
			s0.722,0.309,1.163,0.309c0.469,0,0.863-0.074,1.184-0.224c0.32-0.149,0.589-0.341,0.81-0.576c0.22-0.235,0.395-0.501,0.522-0.8
			c0.128-0.299,0.234-0.597,0.32-0.896l0.299-1.066C66.918,19.706,66.506,19.845,66.065,19.895z"/>
		<path fill="#E0DED6" d="M76.813,13.742l-0.341,1.536h0.043c0.981-1.223,2.268-1.834,3.86-1.834c2.146,0,3.22,0.988,3.22,2.964
			c0,0.114-0.015,0.259-0.043,0.437c-0.029,0.178-0.061,0.359-0.096,0.544c-0.036,0.185-0.072,0.359-0.107,0.522
			c-0.036,0.164-0.061,0.295-0.075,0.395l-1.365,6.461h-3.028l1.343-6.461c0.028-0.171,0.067-0.398,0.117-0.683
			c0.05-0.284,0.075-0.504,0.075-0.661c0-0.327-0.153-0.597-0.458-0.81c-0.306-0.213-0.636-0.32-0.992-0.32
			c-0.455,0-0.856,0.089-1.205,0.267c-0.349,0.178-0.647,0.409-0.896,0.693c-0.249,0.284-0.455,0.611-0.618,0.981
			c-0.164,0.37-0.288,0.746-0.373,1.13l-1.237,5.864h-3.007l2.282-11.025H76.813z"/>
		<path fill="#E0DED6" d="M98.586,9.541l1.173,11.025h0.042l5.864-11.025h4.67l-3.22,15.226h-3.135l2.772-12.113h-0.042
			l-6.44,12.113h-2.559L96.24,12.654h-0.043l-2.282,12.113h-3.156l3.199-15.226H98.586z"/>
		<path fill="#E0DED6" d="M115.304,13.742l-2.346,11.025h-3.028l2.325-11.025H115.304z M112.596,12.036l0.554-2.495h3.049
			l-0.554,2.495H112.596z"/>
		<path fill="#E0DED6" d="M125.327,26.324c-0.313,0.597-0.714,1.087-1.205,1.472c-0.491,0.384-1.074,0.668-1.749,0.853
			c-0.675,0.184-1.468,0.277-2.377,0.277c-0.555,0-1.113-0.064-1.674-0.192s-1.066-0.334-1.514-0.618
			c-0.448-0.285-0.811-0.654-1.088-1.109s-0.416-1.016-0.416-1.685h3.007c-0.015,0.284,0.035,0.526,0.149,0.725
			s0.267,0.363,0.459,0.491c0.192,0.128,0.408,0.22,0.65,0.277c0.242,0.057,0.483,0.085,0.725,0.085c0.483,0,0.885-0.1,1.205-0.298
			c0.32-0.199,0.593-0.469,0.821-0.811c0.227-0.341,0.419-0.746,0.576-1.215s0.313-0.967,0.469-1.493l-0.042-0.042
			c-0.782,1.038-1.791,1.557-3.028,1.557c-0.654,0-1.244-0.106-1.77-0.32c-0.526-0.213-0.971-0.519-1.333-0.917
			c-0.363-0.397-0.644-0.871-0.842-1.418c-0.2-0.547-0.299-1.162-0.299-1.845c0-0.811,0.125-1.61,0.373-2.399
			c0.249-0.789,0.611-1.5,1.088-2.132c0.476-0.633,1.059-1.145,1.749-1.536c0.689-0.391,1.475-0.586,2.356-0.586
			c0.768,0,1.443,0.149,2.026,0.448c0.583,0.298,1.031,0.811,1.343,1.536h0.043l0.341-1.685h2.9l-2.196,10.45
			C125.888,25.016,125.639,25.727,125.327,26.324z M120.827,16.13c-0.384,0.27-0.704,0.608-0.959,1.013
			c-0.256,0.405-0.452,0.853-0.586,1.343c-0.135,0.49-0.203,0.957-0.203,1.397c0,0.327,0.039,0.636,0.117,0.927
			c0.078,0.292,0.203,0.551,0.373,0.778c0.171,0.228,0.384,0.405,0.64,0.533s0.562,0.192,0.917,0.192
			c0.54,0,1.013-0.131,1.418-0.395c0.405-0.263,0.739-0.597,1.002-1.002c0.263-0.405,0.462-0.856,0.598-1.354
			c0.135-0.497,0.202-0.98,0.202-1.45c0-0.696-0.178-1.269-0.533-1.716s-0.903-0.672-1.642-0.672
			C121.659,15.725,121.211,15.86,120.827,16.13z"/>
		<path fill="#E0DED6" d="M136.01,24.767l0.341-1.536h-0.043c-0.98,1.208-2.268,1.813-3.859,1.813c-2.147,0-3.22-0.981-3.22-2.943
			c0-0.114,0.011-0.259,0.032-0.438c0.021-0.177,0.049-0.359,0.085-0.543s0.071-0.359,0.106-0.523
			c0.036-0.163,0.068-0.294,0.096-0.394l1.365-6.462h3.028l-1.344,6.462c-0.028,0.085-0.053,0.188-0.075,0.309
			c-0.021,0.121-0.042,0.245-0.063,0.373c-0.021,0.128-0.036,0.252-0.043,0.373c-0.007,0.121-0.011,0.217-0.011,0.288
			c0,0.327,0.153,0.597,0.458,0.811c0.306,0.213,0.636,0.32,0.992,0.32c0.455,0,0.856-0.089,1.205-0.267
			c0.348-0.178,0.646-0.409,0.896-0.693c0.249-0.284,0.455-0.611,0.618-0.981c0.164-0.369,0.288-0.746,0.374-1.13l1.237-5.865h3.028
			l-2.303,11.025H136.01z"/>
		<path fill="#E0DED6" d="M144.86,20.182c0,0.057,0,0.114,0,0.17v0.277c0,0.64,0.199,1.159,0.597,1.557
			c0.398,0.398,1.009,0.597,1.834,0.597c0.299,0,0.565-0.046,0.8-0.139c0.234-0.092,0.44-0.209,0.618-0.352s0.334-0.306,0.469-0.491
			c0.135-0.185,0.259-0.362,0.373-0.533h3.028c-0.242,0.626-0.526,1.173-0.853,1.642s-0.718,0.864-1.173,1.184
			s-0.984,0.558-1.589,0.714c-0.604,0.156-1.305,0.235-2.101,0.235c-0.739,0-1.411-0.1-2.015-0.299
			c-0.604-0.199-1.12-0.501-1.546-0.906c-0.426-0.405-0.757-0.906-0.992-1.503c-0.234-0.597-0.352-1.293-0.352-2.09
			c0-0.881,0.142-1.731,0.426-2.548c0.284-0.817,0.686-1.542,1.205-2.175c0.519-0.632,1.155-1.137,1.908-1.514
			c0.753-0.376,1.6-0.565,2.538-0.565c0.768,0,1.468,0.1,2.101,0.298c0.632,0.2,1.173,0.501,1.621,0.907
			c0.448,0.405,0.796,0.91,1.045,1.514c0.248,0.604,0.373,1.304,0.373,2.1c0,0.541-0.057,1.116-0.171,1.728h-8.125
			C144.867,20.062,144.86,20.125,144.86,20.182z M150.181,17.229c-0.05-0.277-0.146-0.529-0.288-0.757s-0.349-0.409-0.619-0.544
			c-0.27-0.135-0.625-0.203-1.066-0.203c-0.427,0-0.803,0.064-1.13,0.192s-0.611,0.299-0.853,0.512
			c-0.242,0.213-0.444,0.462-0.607,0.746c-0.164,0.285-0.303,0.583-0.416,0.896h5.054C150.255,17.787,150.23,17.506,150.181,17.229z
			"/>
		<path fill="#E0DED6" d="M160,9.541l-3.241,15.226h-3.007l3.22-15.226H160z"/>
	</g>
	<g>
		<path fill-rule="evenodd" clip-rule="evenodd" fill="#E0DED6" d="M12.401,28.131c-3.64-2.004-6.107-5.86-6.107-10.287
			c0-4.442,2.483-8.313,6.138-10.318l1.094,2.945c-0.014,0-0.014,0.016-0.029,0.016l8.22,22.039
			c6.493-1.635,11.336-7.542,11.336-14.528c0-6.956-4.782-12.833-11.228-14.514l-1.789,4.211l-1.497-4.365l0.108-0.308
			c-0.016,0-0.016,0-0.032,0l0.154-0.371l0.202-0.602h0.046L19.833,0c9.146,0.895,16.318,8.637,16.318,17.999
			c0,9.361-7.203,17.119-16.364,17.983l-0.678-1.728l-0.031,0.016l-0.354-0.986l-0.124-0.325l0,0L11.183,12.57
			c-1.126,1.465-1.805,3.301-1.805,5.275c0,1.913,0.632,3.686,1.696,5.12l1.619-3.948l1.605,4.38l-0.725,1.835
			c0,0,0.015,0,0.015,0.015L12.401,28.131z"/>
		<path fill-rule="evenodd" clip-rule="evenodd" fill="#E0DED6" d="M23.845,7.527c3.64,2.005,6.122,5.876,6.122,10.302
			c0,4.442-2.499,8.313-6.153,10.302l-0.2-0.57l-0.046,0.093L14.606,3.424C8.005,4.998,3.085,10.951,3.085,17.999
			c0,6.956,4.78,12.816,11.228,14.498l1.774-4.21l1.496,4.38l-0.107,0.308c0.016,0,0.03,0,0.03,0l-0.138,0.355l-0.216,0.617
			l-0.031-0.015l-0.833,2.051C7.172,35.087,0,27.345,0,17.999C0,8.622,7.203,0.88,16.349,0l0.802,2.051l0,0l8.066,20.852
			c1.033-1.419,1.65-3.177,1.65-5.074c0-1.913-0.632-3.686-1.697-5.12l-1.603,3.948l-1.605-4.38l0.726-1.836
			c-0.016-0.015-0.016-0.015-0.032-0.015L23.845,7.527z"/>
	</g>
</g>
</svg>
