<?xml version="1.0" encoding="utf-8"?>
<!-- Generator: Adobe Illustrator 16.0.4, SVG Export Plug-In . SVG Version: 6.00 Build 0)  -->
<!DOCTYPE svg PUBLIC "-//W3C//DTD SVG 1.1//EN" "http://www.w3.org/Graphics/SVG/1.1/DTD/svg11.dtd">
<svg version="1.1" id="Isolation_Mode" xmlns="http://www.w3.org/2000/svg" xmlns:xlink="http://www.w3.org/1999/xlink" x="0px"
	 y="0px" width="180px" height="84px" viewBox="-25 -25.5 180 84" enable-background="new -25 -25.5 180 84" xml:space="preserve">
<g>
</g>
<g>
	<polyline fill="#9DA095" points="42.779,10.535 46.234,10.535 46.234,23.428 52.09,23.428 52.09,26.724 42.779,26.724 	"/>
	<path fill="#9DA095" d="M62.898,24.81c-1.067,1.388-2.824,2.191-4.551,2.191c-3.327,0-5.985-2.285-5.985-5.827
		c0-3.54,2.658-5.837,5.985-5.837c3.105,0,5.054,2.297,5.054,5.837v1.064h-7.71c0.262,1.309,1.221,2.152,2.505,2.152
		c1.085,0,1.818-0.566,2.373-1.352 M60.074,19.905c0.03-1.143-0.84-2.102-2.035-2.102c-1.466,0-2.267,1.034-2.349,2.102H60.074z"/>
	<path fill="#9DA095" d="M75.63,26.724h-3.059v-1.468h-0.053c-0.502,0.801-1.785,1.745-3.296,1.745c-3.203,0-5.305-2.376-5.305-5.74
		c0-3.089,1.864-5.924,4.919-5.924c1.376,0,2.668,0.39,3.418,1.461h0.051v-6.263h3.324 M69.906,18.358
		c-1.664,0-2.656,1.136-2.656,2.815c0,1.658,0.992,2.806,2.656,2.806c1.663,0,2.665-1.147,2.665-2.806
		C72.571,19.494,71.569,18.358,69.906,18.358z"/>
	<path fill="#9DA095" d="M86.72,24.81c-1.062,1.388-2.816,2.191-4.547,2.191c-3.329,0-5.992-2.285-5.992-5.827
		c0-3.54,2.663-5.837,5.992-5.837c3.102,0,5.057,2.297,5.057,5.837v1.064h-7.721c0.27,1.309,1.226,2.152,2.506,2.152
		c1.088,0,1.817-0.566,2.377-1.352 M83.903,19.905c0.018-1.143-0.844-2.102-2.035-2.102c-1.472,0-2.266,1.034-2.359,2.102H83.903z"
		/>
	<path fill="#9DA095" d="M94.247,18.879c-0.493-0.614-1.146-0.936-1.939-0.936c-0.551,0-1.22,0.246-1.22,0.912
		c0,1.645,5.61,0.252,5.61,4.482c0,2.841-2.662,3.663-4.963,3.663c-1.516,0-3.18-0.39-4.244-1.511l2.021-2.311
		c0.625,0.785,1.355,1.211,2.353,1.211c0.755,0,1.511-0.202,1.511-0.793c0-1.793-5.618-0.281-5.618-4.508
		c0-2.609,2.27-3.753,4.536-3.753c1.402,0,2.986,0.368,3.98,1.461"/>
	<path fill="#9DA095" d="M97.298,15.615h3.199v1.506h0.039c0.444-0.872,1.53-1.784,3.147-1.784c1.515,0,2.763,0.638,3.337,1.987
		c0.769-1.414,1.818-1.987,3.406-1.987c2.931,0,3.822,2.128,3.822,4.827v6.56h-3.324v-6.469c0-1.024-0.387-1.896-1.472-1.896
		c-1.524,0-2.015,1.114-2.015,2.489v5.876h-3.332v-5.876c0-0.819,0.05-2.489-1.482-2.489c-1.725,0-1.99,1.384-1.99,2.835v5.53
		h-3.336"/>
	<path fill="#9DA095" d="M122.142,25.321h-0.044c-0.732,1.2-2.062,1.68-3.419,1.68c-2.014,0-3.836-1.194-3.836-3.433
		c0-3.843,4.529-3.908,7.299-3.908c0-1.211-0.978-1.994-2.128-1.994c-1.085,0-1.997,0.506-2.712,1.324l-1.773-1.869
		c1.227-1.193,2.998-1.784,4.75-1.784c3.882,0,4.926,2.038,4.926,5.739v5.647h-3.062 M121.322,21.852
		c-1.026,0-3.281,0.095-3.281,1.604c0,0.819,0.843,1.212,1.577,1.212c1.301,0,2.523-0.703,2.523-2.088v-0.729H121.322z"/>
	<path fill="#9DA095" d="M19.771,19.419l8.839,5.274l0.666-0.396v-0.811l-7.608-4.381l2.85-1.699l7.498,4.449v4.067l-3.406,2.022
		L12.29,18.207l-4.77,2.859v5.657l4.757,2.83l5.417-3.227l-1.347-0.8l-4.071,2.418L8.87,25.923v-4.067l3.407-2.016l16.333,9.714
		l4.768-2.83v-5.665l-7.496-4.467l2.728-1.611l7.485,4.45v8.92l-7.485,4.453l-8.181-4.85l-8.152,4.85L4.795,28.35v-8.91l8.14-4.914
		l0.023-9.872l7.485-4.457l7.482,4.457v8.916l-2.725,1.616v-8.91l-4.757-2.83l-4.761,2.83v10.731l1.352,0.788V7.178l3.409-2.12
		l3.398,2.026v8.906l-2.729,1.618V8.717L20.444,8.31l-0.696,0.447 M11.537,23.456v0.874l0.74,0.447l0.738-0.447v-0.874l-0.738-0.442
		L11.537,23.456z"/>
</g>
</svg>
