<?xml version="1.0" encoding="utf-8"?>
<!-- Generator: Adobe Illustrator 16.0.4, SVG Export Plug-In . SVG Version: 6.00 Build 0)  -->
<!DOCTYPE svg PUBLIC "-//W3C//DTD SVG 1.1//EN" "http://www.w3.org/Graphics/SVG/1.1/DTD/svg11.dtd">
<svg version="1.1" id="Layer_1" xmlns="http://www.w3.org/2000/svg" xmlns:xlink="http://www.w3.org/1999/xlink" x="0px" y="0px"
	 width="62.374px" height="81.838px" viewBox="0 0 62.374 81.838" enable-background="new 0 0 62.374 81.838" xml:space="preserve">
<g>
	<path fill-rule="evenodd" clip-rule="evenodd" fill="#DAD9D4" d="M0.542,67.81v14.028h61.043V67.81H0.542z M24.348,72.517h-4.261
		l-0.278,1.2h3.705l-0.371,2.029h-3.613l-0.278,1.385h4.446l-0.37,2.122h-7.318l1.574-8.858h7.133L24.348,72.517z M32.869,76.393
		c-0.37,2.03-2.223,3.046-4.724,3.046c-2.316,0-3.612-1.385-3.334-2.953h2.779c0,0.369,0.093,0.553,0.278,0.737
		c0.278,0.092,0.556,0.186,0.833,0.186c0.741,0,1.204-0.186,1.297-0.646c0.278-1.293-5.002-0.37-4.354-3.784
		c0.278-1.845,2.038-2.769,4.261-2.769c2.502,0,3.334,1.2,3.334,2.769h-2.778c0-0.276-0.092-0.462-0.278-0.554
		c-0.185-0.186-0.463-0.186-0.741-0.186c-0.648,0-0.927,0.186-1.019,0.463C28.146,74.086,33.426,73.256,32.869,76.393z
		 M42.688,72.979c-0.186,0.923-0.834,1.846-1.853,2.122c0.834,0.369,1.389,0.555,1.11,2.308c-0.276,1.199-0.37,1.568,0,1.568
		l-0.092,0.276h-2.872c-0.092-0.185,0-0.83,0.094-1.568c0.186-1.106,0.092-1.569-1.298-1.569h-0.833l-0.556,3.138h-2.872
		l1.574-8.858h4.17C42.132,70.395,42.966,71.225,42.688,72.979z M46.115,79.253h-2.871l1.481-8.858h2.964L46.115,79.253z"/>
	<path fill-rule="evenodd" clip-rule="evenodd" fill="#DAD9D4" d="M38.891,72.517h-1.297l-0.277,1.754h1.11
		c0.835,0,1.39-0.277,1.482-0.831C40.001,72.793,39.632,72.517,38.891,72.517z"/>
	
		<path opacity="0.2" fill-rule="evenodd" clip-rule="evenodd" fill="#CACACA" stroke="#CACACA" stroke-width="1.684" stroke-miterlimit="2.6131" d="
		M45.004,53.692c5.65-3.784,9.819-9.69,11.856-16.15c1.204-3.691-0.277-12.366-1.853-15.411c-2.872-5.629-5.188-9.228-11.393-12.643
		c-3.242-1.846-7.04-3.507-13.524-3.784c-3.983-0.185-7.133,0.185-10.745,1.569C9.342,11.149,7.675,18.44,6.192,20.47
		c-0.926,1.199-2.223,13.289-0.463,18.917c1.204,3.507,2.315,5.813,4.539,7.937c3.706,3.598,7.04,6.921,12.134,8.397
		C32.128,58.674,41.67,55.906,45.004,53.692L45.004,53.692z"/>
	
		<path opacity="0.2" fill-rule="evenodd" clip-rule="evenodd" fill="#A8A7A7" stroke="#A8A7A7" stroke-width="0.3742" stroke-miterlimit="2.6131" d="
		M14.344,8.012c-0.648,3.968,1.297,2.584,1.482,4.707c-0.371,0.369,0.092-0.092-1.76,0.369C14.899,10.78,13.417,9.765,14.344,8.012
		L14.344,8.012z"/>
	
		<path opacity="0.2" fill-rule="evenodd" clip-rule="evenodd" fill="#A8A7A7" stroke="#A8A7A7" stroke-width="0.3742" stroke-miterlimit="2.6131" d="
		M8.878,22.5c5.002-3.599,4.817-3.968,9.263-3.968c0,2.03-1.297,1.569-1.667,2.86c-0.185,0.738,5.28,4.707,0.741,3.322
		c-1.111-0.277-1.389,1.846-2.593,2.769c-3.335,2.584-4.817-0.185-5.372-2.584C9.064,23.977,8.323,22.961,8.878,22.5L8.878,22.5z"/>
	
		<path opacity="0.2" fill-rule="evenodd" clip-rule="evenodd" fill="#A8A7A7" stroke="#A8A7A7" stroke-width="0.3742" stroke-miterlimit="2.6131" d="
		M5.081,26.837c-0.741,2.215-3.798,3.045,0.556,3.599C5.081,29.514,5.266,28.406,5.081,26.837L5.081,26.837z"/>
	
		<path opacity="0.2" fill-rule="evenodd" clip-rule="evenodd" fill="#A8A7A7" stroke="#A8A7A7" stroke-width="0.3742" stroke-miterlimit="2.6131" d="
		M18.605,43.264l5.094-2.953c-2.872-1.384,1.76-5.445-0.463-6.459c-1.575-0.831-5.095-2.492-7.781-1.292
		c-1.297,0.554-0.556,1.108-0.833,2.215c-0.371,1.384-1.853,1.661,0.278,5.537C15.455,41.233,17.215,40.495,18.605,43.264
		L18.605,43.264z"/>
	
		<path opacity="0.2" fill-rule="evenodd" clip-rule="evenodd" fill="#A8A7A7" stroke="#A8A7A7" stroke-width="0.3742" stroke-miterlimit="2.6131" d="
		M25.737,44.464c0,1.846-0.278,4.521,0.093,6.274c-1.667,0-4.631-2.03-4.909-3.414C20.828,46.678,25.088,44.647,25.737,44.464
		L25.737,44.464z"/>
	
		<path opacity="0.2" fill-rule="evenodd" clip-rule="evenodd" fill="#A8A7A7" stroke="#A8A7A7" stroke-width="0.3742" stroke-miterlimit="2.6131" d="
		M10.268,43.171c-2.964-0.922-2.409-1.938-1.297-3.322C9.435,40.587,9.805,42.156,10.268,43.171L10.268,43.171z"/>
	
		<path opacity="0.2" fill-rule="evenodd" clip-rule="evenodd" fill="#A8A7A7" stroke="#A8A7A7" stroke-width="0.3742" stroke-miterlimit="2.6131" d="
		M18.142,7.643c1.204-0.185,1.76-1.107,2.223,0.554c0.556,2.031-1.111,0.739-1.111,3.23C18.882,9.581,18.697,9.488,18.142,7.643
		L18.142,7.643z"/>
	
		<path opacity="0.2" fill-rule="evenodd" clip-rule="evenodd" fill="#A8A7A7" stroke="#A8A7A7" stroke-width="0.3742" stroke-miterlimit="2.6131" d="
		M23.514,6.812c1.76,1.107,2.779-0.185,4.909,0.277c2.872,0.553,3.612,3.414,5.558,2.03c0.926-0.738,0.926-0.184,0.833-1.384
		c-1.019-0.461-3.242-1.292-4.816-1.477C27.775,5.981,25.459,5.889,23.514,6.812L23.514,6.812z"/>
	
		<path opacity="0.2" fill-rule="evenodd" clip-rule="evenodd" fill="#A8A7A7" stroke="#A8A7A7" stroke-width="0.3742" stroke-miterlimit="2.6131" d="
		M40.279,10.199h-2.871c1.574-2.399,2.871-0.923,3.428-0.739C42.966,10.014,38.982,8.445,40.279,10.199L40.279,10.199z"/>
	<path opacity="0.2" fill="#A8A7A7" stroke="#A8A7A7" stroke-width="0.3742" stroke-miterlimit="2.6131" d="M30.924,15.366
		c-2.223,3.138-3.427,2.769-3.798,6.46c0.371,0.462,1.204,0.554,2.409,0.462c1.111-0.185,3.798-2.031,3.798,1.661
		c0,0.461,1.297,0.461,1.852,0.646C34.814,21.734,32.222,20.534,30.924,15.366L30.924,15.366z"/>
	
		<path opacity="0.2" fill-rule="evenodd" clip-rule="evenodd" fill="#A8A7A7" stroke="#A8A7A7" stroke-width="0.3742" stroke-miterlimit="2.6131" d="
		M37.778,27.022c-1.945,0.461-7.039,3.414-5.187,6.368c0.741,1.199,7.409,3.137,8.707,1.661l-1.39-4.061L37.778,27.022
		L37.778,27.022z"/>
	
		<path opacity="0.2" fill-rule="evenodd" clip-rule="evenodd" fill="#A8A7A7" stroke="#A8A7A7" stroke-width="0.3742" stroke-miterlimit="2.6131" d="
		M44.448,27.668c0-0.277-0.371-1.016,0.927-1.016c1.944,0,5.372,0.185,6.576,1.2c0.741,0.553,0.648,1.015,1.019,1.938
		c0.649,1.753,0.093,2.584,1.019,4.429c-2.13,0-1.019,0.923-2.686,1.107c-0.833,0.185-2.778-1.107-4.076-1.476
		c-0.833-0.185-1.204-1.938-1.389-3.23C45.561,29.145,44.448,28.498,44.448,27.668L44.448,27.668z"/>
	
		<path opacity="0.2" fill-rule="evenodd" clip-rule="evenodd" fill="#A8A7A7" stroke="#A8A7A7" stroke-width="0.3742" stroke-miterlimit="2.6131" d="
		M57.694,33.851c-1.945,0.276-0.093-3.968,0.556-2.861L57.694,33.851L57.694,33.851z"/>
	
		<path opacity="0.2" fill-rule="evenodd" clip-rule="evenodd" fill="#A8A7A7" stroke="#A8A7A7" stroke-width="0.3742" stroke-miterlimit="2.6131" d="
		M54.823,23.607c-0.835-1.015-2.131-3.968-2.409-5.999c3.613,0.554,4.262,3.23,1.944,4.338c0.465,0.738,0.649-0.37,0.927,0.369
		C55.749,23.607,56.027,23.515,54.823,23.607L54.823,23.607z"/>
	
		<path opacity="0.2" fill-rule="evenodd" clip-rule="evenodd" fill="#A8A7A7" stroke="#A8A7A7" stroke-width="0.3742" stroke-miterlimit="2.6131" d="
		M40.187,39.849c2.132,0.646,3.058-0.184,3.429-0.184c0.277,0,0.185,1.938,0.37,2.307c1.11,1.753,0.648,3.138,0.648,5.168
		c-0.834,0.461-3.058-2.123-3.242-4.061C41.299,42.71,39.539,39.665,40.187,39.849L40.187,39.849z"/>
	
		<path opacity="0.2" fill-rule="evenodd" clip-rule="evenodd" fill="#A8A7A7" stroke="#A8A7A7" stroke-width="0.3742" stroke-miterlimit="2.6131" d="
		M48.616,39.48c1.945,1.846,1.112,5.167,0.464,7.751c1.944-0.369,2.408-2.215,3.148-3.599c0.649-1.199-0.277-1.661,0.464-2.77
		C51.766,40.218,50.376,39.48,48.616,39.48L48.616,39.48z"/>
	
		<path opacity="0.2" fill-rule="evenodd" clip-rule="evenodd" fill="#A8A7A7" stroke="#A8A7A7" stroke-width="0.3742" stroke-miterlimit="2.6131" d="
		M43.615,54.152c0-2.214,2.871-3.783,2.685-1.568C46.208,54.892,45.189,53.692,43.615,54.152L43.615,54.152z"/>
	
		<path opacity="0.2" fill-rule="evenodd" clip-rule="evenodd" fill="#A8A7A7" stroke="#A8A7A7" stroke-width="0.3742" stroke-miterlimit="2.6131" d="
		M26.293,32.651c1.575,0.369,1.76,0.831,0.926,1.846C26.386,34.127,26.386,33.482,26.293,32.651L26.293,32.651z"/>
	
		<path opacity="0.2" fill-rule="evenodd" clip-rule="evenodd" fill="#A8A7A7" stroke="#A8A7A7" stroke-width="0.3742" stroke-miterlimit="2.6131" d="
		M22.588,54.522h-3.706C20.272,55.537,21.939,55.814,22.588,54.522L22.588,54.522z"/>
	
		<path opacity="0.2" fill-rule="evenodd" clip-rule="evenodd" fill="#A8A7A7" stroke="#A8A7A7" stroke-width="0.3742" stroke-miterlimit="2.6131" d="
		M27.868,56.552c0.648-0.461,1.482-1.477,2.593-1.477c0.926,0,2.038,1.477,2.778,1.569c1.945,0.185,3.336-0.093,6.484-0.093
		C37.872,56.645,29.628,58.213,27.868,56.552L27.868,56.552z"/>
	
		<path fill-rule="evenodd" clip-rule="evenodd" fill="#DAD9D4" stroke="#DAD9D4" stroke-width="1.3936" stroke-miterlimit="2.6131" d="
		M18.419,0.906c0.833-0.092-1.945,5.906-1.76,8.029c0.278,2.307,2.315,4.798,2.964,6.921c0.649,2.953,2.408,8.49,3.891,13.289
		c1.482,4.891,9.819,20.948,11.116,22.425c2.5,2.676,4.168,8.767,3.427,7.658c-0.278,0-0.648-2.214-1.39-4.613
		c-0.74-2.86-8.799-12.734-12.597-22.978c-1.019-2.769-4.261-11.627-5.095-15.873c-0.741-4.061-4.631-4.245-0.926-12.366
		C18.605,2.198,17.678,0.814,18.419,0.906L18.419,0.906z"/>
	
		<path fill-rule="evenodd" clip-rule="evenodd" fill="#DAD9D4" stroke="#DAD9D4" stroke-width="1.3936" stroke-miterlimit="2.6131" d="
		M6.007,14.103c-0.556,2.86,0.833,13.75,3.149,18.641c3.983,8.305,7.225,14.119,7.503,14.581c0.833,1.938,4.076,5.905,6.298,7.474
		c8.244,5.723,7.874,5.814,7.874,5.814c0.278,0-12.413-9.597-13.339-10.427c-1.112-0.923-7.132-9.967-9.17-17.535
		c-2.223-8.028-2.408-5.352-2.779-9.136C5.544,23.331,6.007,13.641,6.007,14.103L6.007,14.103z"/>
	
		<path fill-rule="evenodd" clip-rule="evenodd" fill="#DAD9D4" stroke="#DAD9D4" stroke-width="1.3936" stroke-miterlimit="2.6131" d="
		M53.248,49.631c-1.667-0.277-7.781-1.661-16.396,1.2c-10.744,2.029-13.615,8.305-13.8,8.305c-4.354-1.291,6.947-7.382,13.153-8.767
		c3.891-0.83,12.412-2.399,17.322-1.016C54.823,49.816,53.526,49.169,53.248,49.631L53.248,49.631z"/>
	
		<path fill-rule="evenodd" clip-rule="evenodd" fill="#DAD9D4" stroke="#DAD9D4" stroke-width="1.3936" stroke-miterlimit="2.6131" d="
		M3.043,25.453c1.297-2.769,3.798-5.167,8.707-8.306c2.594-1.753,6.484-2.583,9.17-3.783c5.095-1.569,11.023-3.045,13.061-3.045
		c7.78-0.277,19.081,1.753,18.247,1.753c0.556,0.554-3.334,0.092-3.797-0.092c-2.038-0.831-10.745-0.922-15.192,0
		c-4.353,0.923-10.281,1.661-13.708,3.414c-4.446,2.215-8.707,2.031-12.783,7.567C6.377,23.515,1.746,25.822,3.043,25.453
		L3.043,25.453z"/>
	
		<path fill-rule="evenodd" clip-rule="evenodd" fill="#DAD9D4" stroke="#DAD9D4" stroke-width="1.3936" stroke-miterlimit="2.6131" d="
		M11.251,48.233c3.428-2.215,5.744-3.876,10.282-6.737c7.781-4.798,15.933-6.183,20.379-6.552
		c10.838-0.923,10.282,2.492,16.304,2.861c2.036,0.093,0.185,0.369-1.206,0.369c-8.799-3.414-10.188-2.584-15.561-1.753
		c-5.836,0.922-16.211,3.507-21.861,7.75C14.4,48.141,11.993,48.049,11.251,48.233L11.251,48.233z"/>
	
		<path opacity="0.2" fill-rule="evenodd" clip-rule="evenodd" fill="#A8A7A7" stroke="#A8A7A7" stroke-width="0.3742" stroke-miterlimit="2.6131" d="
		M37.778,13.272c0,1.846,1.669,1.569,1.669,3.415c0,1.569,0.369,3.415,0.926,4.891c0.185,0.646,2.038-0.369,3.797-0.369
		c2.224,0,5.743,1.015,6.947,2.307c-1.111-2.861-1.111-2.215-2.407-4.983C45.652,11.98,41.021,13.179,37.778,13.272L37.778,13.272z"
		/>
	<path fill-rule="evenodd" clip-rule="evenodd" d="M3.784,18.901c-1.945,4.153-2.5,14.304-0.37,21.594
		c5.465,17.903,27.511,21.963,39.089,17.164c13.339-5.444,15.099-14.488,17.137-22.701c1.389-5.721-1.296-12.458-4.168-17.718
		C51.674,10.134,37.037-0.386,26.108,3.767c-1.76,0.739,0.833-1.938,6.576-1.384c11.209-0.462,21.49,6.275,25.474,13.473
		c9.911,15.596,0,37.19-13.062,42.912c-5.557,2.398-10.373,3.507-19.266,2.307C17.03,59.782,9.805,55.537,4.154,46.492
		C-2.7,35.42,1.19,22.039,2.209,19.271C4.803,11.888,17.771-1.862,34.444,0.445C34.723,0.537,12.583-0.201,3.784,18.901
		L3.784,18.901z"/>
	<path fill="#DAD9D4" stroke="#FFFFFF" stroke-width="0.3742" stroke-miterlimit="2.6131" d="M3.784,18.901
		c-1.945,4.153-2.5,14.304-0.37,21.594c5.465,17.903,27.511,21.963,39.089,17.164c13.339-5.444,15.099-14.488,17.137-22.701
		c1.389-5.721-1.298-12.458-4.168-17.718C51.674,10.134,37.037-0.386,26.108,3.767c-1.76,0.739,0.833-1.938,6.576-1.384
		c11.209-0.462,21.49,6.275,25.474,13.473c9.911,15.596,0,37.19-13.062,42.912c-5.557,2.398-10.373,3.507-19.266,2.307
		C17.03,59.782,9.805,55.537,4.154,46.492C-2.7,35.42,1.19,22.039,2.209,19.271C4.803,11.888,17.771-1.862,34.444,0.445
		C34.723,0.537,12.583-0.201,3.784,18.901"/>
	<path fill-rule="evenodd" clip-rule="evenodd" d="M30.646,8.474c2.315,1.476,7.503,11.72,8.893,14.026
		c4.631,7.567,5.743,11.535,6.483,14.766c1.297,5.074,0.371,19.194,0.464,19.379c0.093,1.938,0.093-5.26,0.185-9.32
		c0.648-3.969-2.037-13.658-7.317-21.594c-3.335-5.076-6.021-11.443-6.854-13.289c-0.834-1.845-1.019-1.477-1.112-2.492
		c-0.37-1.938-5.094-5.537-5.094-5.629C26.293,2.66,30.369,8.474,30.646,8.474L30.646,8.474z"/>
	<path fill="#DAD9D4" stroke="#DAD9D4" stroke-width="1.3936" stroke-miterlimit="2.6131" d="M30.646,8.474
		c2.315,1.476,7.503,11.72,8.893,14.026c4.631,7.567,5.743,11.535,6.483,14.766c1.297,5.074,0.464,19.194,0.464,19.379
		c0.093,1.938,0.093-5.26,0.185-9.32c0.648-3.969-2.037-13.658-7.317-21.594c-3.335-5.076-6.021-11.443-6.854-13.289
		c-0.834-1.845-1.019-1.477-1.112-2.492c-0.37-1.938-5.094-5.537-5.094-5.629C26.293,2.66,30.369,8.474,30.646,8.474L30.646,8.474z"
		/>
	
		<path fill-rule="evenodd" clip-rule="evenodd" fill="#DAD9D4" stroke="#DAD9D4" stroke-width="1.3936" stroke-miterlimit="2.6131" d="
		M7.026,35.42c2.687-3.138,11.949-6.922,15.654-8.029c4.168-1.292,6.484-1.477,10.746-2.307c6.021-1.015,16.58-1.569,20.933,1.2
		c6.855,2.122,2.409,1.292,0.649,0.738c-2.315-0.646-3.52-3.968-18.896-1.292c-1.759,0.277-10.837,1.661-12.968,2.584
		c-4.261,1.753-4.446,0.923-12.598,4.983c-2.594,1.2-5.373,5.445-5.65,5.076C4.71,38.28,5.637,36.711,7.026,35.42L7.026,35.42z"/>
	
		<path opacity="0.2" fill-rule="evenodd" clip-rule="evenodd" fill="#DAD9D4" stroke="#DAD9D4" stroke-width="1.3936" stroke-miterlimit="2.6131" d="
		M48.153,12.626c5.187,9.043,6.113,9.597,6.947,16.703c0.556,3.784,1.019,4.522,1.667,8.951c0.37,2.769-1.019,10.889,0.741,5.444
		c0.093-3.137-1.205-7.29-1.205-9.874c0-12.828-12.504-24.178-12.318-24.732C44.17,8.658,46.671,10.965,48.153,12.626L48.153,12.626
		z"/>
	<path fill-rule="evenodd" clip-rule="evenodd" fill="#DAD9D4" d="M57.323,59.875c-0.463,0.461-0.647,0.922-0.647,1.568
		c0,0.554,0.185,1.015,0.647,1.477c0.371,0.368,0.834,0.554,1.482,0.554c0.557,0,1.019-0.186,1.481-0.554
		c0.371-0.462,0.557-0.923,0.557-1.477c0-0.646-0.186-1.107-0.557-1.568c-0.463-0.37-0.925-0.554-1.481-0.554
		C58.157,59.321,57.694,59.505,57.323,59.875L57.323,59.875z M60.473,63.104c-0.463,0.554-1.019,0.739-1.667,0.739
		c-0.741,0-1.297-0.186-1.76-0.739c-0.463-0.461-0.742-1.015-0.742-1.66c0-0.738,0.279-1.293,0.742-1.753
		c0.463-0.463,1.019-0.739,1.76-0.739c0.648,0,1.204,0.276,1.667,0.739c0.556,0.46,0.741,1.015,0.741,1.753
		C61.214,62.089,61.028,62.643,60.473,63.104L60.473,63.104z M59.269,60.521c-0.186-0.094-0.37-0.185-0.556-0.185H58.25v1.015h0.463
		c0.186,0,0.37,0,0.463-0.092c0.187,0,0.278-0.185,0.278-0.369S59.362,60.521,59.269,60.521L59.269,60.521z M58.713,60.059
		c0.37,0,0.556,0,0.741,0.092c0.278,0.093,0.464,0.37,0.464,0.646c0,0.277-0.094,0.462-0.278,0.554
		c-0.092,0.093-0.277,0.093-0.371,0.093c0.186,0.092,0.371,0.185,0.464,0.276c0.092,0.185,0.092,0.277,0.092,0.461v0.185
		c0,0.093,0,0.093,0,0.186c0,0.092,0,0.092,0,0.184h0.094h-0.464l0,0c0,0,0,0,0-0.092v-0.092v-0.186
		c0-0.276-0.092-0.461-0.278-0.646c-0.093,0-0.277,0-0.555,0H58.25v1.015h-0.463v-2.676H58.713L58.713,60.059z"/>
</g>
</svg>
