<?xml version="1.0" encoding="utf-8"?>
<!-- Generator: Adobe Illustrator 16.0.4, SVG Export Plug-In . SVG Version: 6.00 Build 0)  -->
<!DOCTYPE svg PUBLIC "-//W3C//DTD SVG 1.1//EN" "http://www.w3.org/Graphics/SVG/1.1/DTD/svg11.dtd">
<svg version="1.1" id="Layer_1" xmlns="http://www.w3.org/2000/svg" xmlns:xlink="http://www.w3.org/1999/xlink" x="0px" y="0px"
	 width="160.241px" height="52.241px" viewBox="0 0 160.241 52.241" enable-background="new 0 0 160.241 52.241"
	 xml:space="preserve">
<g>
	<g>
		<defs>
			<path id="SVGID_1_" d="M144.389,16.906c7.037-5.455,13.219-10.382,15.852-12.685c-5.461,0.888-12.197,2.036-19.135,3.471
				c-1.207-3.259-2.273-5.969-3.061-7.692c-0.945,1.001-3.416,4.882-6.406,9.82c-3.977,0.977-7.854,2.049-11.432,3.227
				c1.18,1.49,3.262,3.646,5.861,6.147c-5.699,9.71-11.209,19.412-11.209,19.412c2.992-1.77,10.236-7.035,18.145-12.999
				c6.676,5.991,14.33,12.467,19.479,16.608C151.016,36.792,147.643,26.309,144.389,16.906L144.389,16.906z"/>
		</defs>
		<use xlink:href="#SVGID_1_"  overflow="visible" fill-rule="evenodd" clip-rule="evenodd" fill="#E0DED6"/>
		<clipPath id="SVGID_2_">
			<use xlink:href="#SVGID_1_"  overflow="visible"/>
		</clipPath>
		<g clip-path="url(#SVGID_2_)">
			<defs>
				<rect id="SVGID_3_" x="114.86" width="45.381" height="42.215"/>
			</defs>
			<use xlink:href="#SVGID_3_"  overflow="visible" fill="#E0DED6"/>
			<clipPath id="SVGID_4_">
				<use xlink:href="#SVGID_3_"  overflow="visible"/>
			</clipPath>
			<g transform="matrix(1 0 0 1 3.814697e-06 0)" clip-path="url(#SVGID_4_)">
				
					<image overflow="visible" width="100" height="92" xlink:href="B836FDEBC7C083B4.jpg"  transform="matrix(0.48 0 0 -0.48 31.6431 34.3755)">
				</image>
			</g>
		</g>
	</g>
	<path fill-rule="evenodd" clip-rule="evenodd" fill="#E0DED6" d="M93.358,13.087h-5.182c0,0,0.139,18.093,0.146,18.982
		C87.692,31.42,69.86,13.087,69.86,13.087h-6.595v24.234h5.375c0,0-0.143-18.505-0.15-19.391
		c0.632,0.643,19.066,19.391,19.066,19.391h5.994V13.087H93.358L93.358,13.087z"/>
	<path fill-rule="evenodd" clip-rule="evenodd" fill="#E0DED6" d="M5.382,13.087H0v24.234h21.552l-2.388-3.668
		c0,0-13.228,0-13.592,0c0-0.373,0-20.566,0-20.566H5.382L5.382,13.087z"/>
	<path fill-rule="evenodd" clip-rule="evenodd" fill="#E0DED6" d="M43.822,13.087h-4.641L23.386,37.321h6.382
		c0,0,11.483-18.521,11.792-19.023c0.295,0.472,5.255,8.387,5.581,8.91c-0.634,0-9.686,0-9.686,0l2.327,3.572c0,0,9.379,0,9.583,0
		c0.107,0.172,4.062,6.549,4.062,6.549l6.294-0.008L43.924,13.087H43.822L43.822,13.087z"/>
	<path fill-rule="evenodd" clip-rule="evenodd" fill="#E0DED6" d="M136.192,41.083c-12.605,0.35-22.916,4.639-34.213,7.049
		c-5.807,1.391-11.779,2.49-17.881,3.268c3.002,0.637,6.252,0.957,9.914,0.805c18.609-0.777,30.334-7.467,46.057-8.125
		c3.439-0.139,8.344-0.217,12.35,0.236C147.762,42.418,142.604,40.905,136.192,41.083L136.192,41.083z"/>
</g>
</svg>
