<?xml version="1.0" encoding="utf-8"?>
<!-- Generator: Adobe Illustrator 16.0.4, SVG Export Plug-In . SVG Version: 6.00 Build 0)  -->
<!DOCTYPE svg PUBLIC "-//W3C//DTD SVG 1.1//EN" "http://www.w3.org/Graphics/SVG/1.1/DTD/svg11.dtd">
<svg version="1.1" id="Isolation_Mode" xmlns="http://www.w3.org/2000/svg" xmlns:xlink="http://www.w3.org/1999/xlink" x="0px"
	 y="0px" width="75px" height="38.344px" viewBox="0 0 75 38.344" enable-background="new 0 0 75 38.344" xml:space="preserve">
<g>
	<path fill-rule="evenodd" clip-rule="evenodd" fill="#9DA095" d="M28.136,26.702c-1.82,0-3.58,0-5.359,0
		c3.645-8.787,6.654-17.75,10.063-26.589c2.387,0,4.734,0,7.177,0c0.244,0.65,0.503,1.319,0.746,1.994
		c2.408,6.686,4.799,13.378,7.231,20.056c0.554,1.521,1.243,2.993,1.885,4.522c-2.342,0-4.767,0-7.274,0
		c-0.982-2.78-1.971-5.581-2.977-8.428c-2.888,0-5.754,0-8.709,0C29.995,21.062,29.066,23.881,28.136,26.702z M38.358,13.998
		c-1.008-3.041-1.985-5.992-2.963-8.942c-0.06,0.009-0.12,0.019-0.18,0.028c-0.973,2.95-1.946,5.899-2.94,8.915
		C34.366,13.998,36.301,13.998,38.358,13.998z"/>
	<path fill-rule="evenodd" clip-rule="evenodd" fill="#9DA095" d="M5.479,0.119c0.083-0.012,0.203-0.044,0.321-0.043
		c3.906,0.009,7.814-0.049,11.718,0.06c2.265,0.063,4.384,0.763,6.131,2.314c1.906,1.693,2.433,3.864,2.016,6.277
		c-0.646,3.74-3.258,6.114-7.109,6.54c-1.449,0.161-2.902,0.218-4.301-0.327c-0.271-0.105-0.526-0.252-0.788-0.38
		c0.002-0.057,0.003-0.115,0.005-0.173c0.221-0.051,0.44-0.109,0.663-0.154c3.445-0.687,5.401-4.035,4.304-7.37
		c-0.581-1.767-2.065-2.905-3.92-2.98c-0.643-0.026-1.287-0.004-2.062-0.004c0,3.875-0.033,7.67,0.009,11.466
		c0.042,3.771-0.216,7.548,0.242,11.363c-2.422,0-4.836,0-7.299,0c0.067-0.64,0.156-1.25,0.191-1.864
		c0.049-0.874,0.083-1.75,0.083-2.625C5.691,16.107,5.7,9.997,5.679,3.887C5.675,2.646,5.551,1.406,5.479,0.119z"/>
	<path fill-rule="evenodd" clip-rule="evenodd" fill="#9DA095" d="M52.307,0c5.371,0,10.694,0,16.075,0c0,1.412,0,2.772,0,4.102
		c-2.989,0-5.928,0-8.93,0c0,2.05,0,4.087,0,6.186c2.129,0,4.222,0,6.396,0c0,1.294,0,2.593,0,3.97c-2.124,0-4.217,0-6.384,0
		c0,2.812,0,5.546,0,8.274c1.291,0.362,9.184,0.062,11.203-0.449c-0.346,1.579-0.678,3.094-1.018,4.64c-5.817,0-11.567,0-17.375,0
		c0.011-0.202,0.015-0.367,0.029-0.531c0.074-0.822,0.214-1.643,0.216-2.465c0.018-6.915,0.019-13.83,0-20.745
		C52.519,2.013,52.386,1.044,52.307,0z"/>
	<path fill-rule="evenodd" clip-rule="evenodd" fill="#9DA095" d="M75,31.722c-0.258,0.673-0.488,1.273-0.743,1.936
		C49.449,34.136,24.728,35.639,0,38.344c0.134-0.511,0.239-0.944,0.36-1.372c0.354-1.248,0.716-2.494,1.084-3.774
		c0.454-0.042,0.847-0.094,1.242-0.113c5.729-0.275,11.456-0.568,17.186-0.812c5.604-0.239,11.21-0.496,16.817-0.623
		c7.387-0.167,14.775-0.276,22.164-0.291c5.133-0.01,10.267,0.18,15.399,0.284C74.471,31.647,74.688,31.688,75,31.722z"/>
</g>
</svg>
