<?xml version="1.0" encoding="utf-8"?>
<!-- Generator: Adobe Illustrator 16.0.4, SVG Export Plug-In . SVG Version: 6.00 Build 0)  -->
<!DOCTYPE svg PUBLIC "-//W3C//DTD SVG 1.1//EN" "http://www.w3.org/Graphics/SVG/1.1/DTD/svg11.dtd">
<svg version="1.1" id="Capa_1" xmlns="http://www.w3.org/2000/svg" xmlns:xlink="http://www.w3.org/1999/xlink" x="0px" y="0px"
	 width="179.034px" height="25.353px" viewBox="0 0 179.034 25.353" enable-background="new 0 0 179.034 25.353"
	 xml:space="preserve">
<g>
	<path fill="#E0DED6" d="M13.39,25.353c-2.395-0.224-4.62-0.918-6.542-1.976C2.725,21.109,0,17.18,0,12.715
		C0,5.693,6.746,0,15.068,0c8.321,0,15.067,5.693,15.067,12.715c0,4.46-2.722,8.388-6.841,10.656l-8.223-9.495l-8.222,9.501
		l1.979,0.002c1.456,0,2.307-0.811,2.738-1.278l2.655-3.041c0.221-0.21,0.526-0.338,0.856-0.338c0.334,0,0.638,0.13,0.863,0.346
		l2.642,3.033c0.433,0.468,1.283,1.278,2.738,1.278l1.963-0.002c-1.92,1.056-4.142,1.75-6.531,1.974v-3.698H13.39V25.353z
		 M15.939,13.828l2.642,3.034c0.433,0.469,1.283,1.279,2.738,1.279l1.979-0.004l-8.228-9.501l-8.222,9.501l1.979,0.004
		c1.456,0,2.307-0.811,2.738-1.279l2.655-3.041c0.221-0.211,0.526-0.34,0.856-0.34C15.411,13.481,15.714,13.614,15.939,13.828
		 M15.939,8.588l2.642,3.033c0.433,0.469,1.283,1.279,2.738,1.279l1.979-0.002l-8.228-9.502l-8.222,9.502l1.979,0.002
		c1.456,0,2.307-0.811,2.738-1.279l2.655-3.041c0.221-0.21,0.526-0.337,0.856-0.337C15.411,8.244,15.714,8.374,15.939,8.588"/>
	<path fill="#E0DED6" d="M122.228,14.498v6.137h-2.577V7.931l7.707,0.006c3.181,0,3.688,1.97,3.688,3.775
		c0,2.089-0.971,2.901-1.838,3.149c0.431,0.092,0.601,0.133,0.893,0.896l1.769,4.876h-2.563l-1.559-4.079
		c-0.243-0.697-0.697-1.198-1.85-1.165h-2.977L122.228,14.498z M122.216,9.643v4.064h4.255c0.519,0,1.815-0.578,1.815-1.878
		c0-1.874-1.252-2.187-1.865-2.187H122.216z"/>
	<path fill="#E0DED6" d="M138.824,9.641h1.807l1.321,4.027h-4.512L138.824,9.641z M141.627,7.931h-3.83
		c-0.665,0-1.11,0.438-1.363,1.061l-3.896,11.643h2.597l2.143-6.302l0.357,0.994l3.719-0.002c1.039,0,1.28,0.317,1.621,1.197
		l1.566,4.147h2.5l-4.064-11.862C142.753,8.279,142.249,7.931,141.627,7.931"/>
	<circle fill="#E0DED6" stroke="#FFFFFF" stroke-width="0.0681" stroke-miterlimit="3.864" cx="177.938" cy="19.589" r="1.062"/>
	<path fill="#E0DED6" d="M167.581,9.641h1.807l1.32,4.027h-4.511L167.581,9.641z M170.385,7.931h-3.83
		c-0.666,0-1.112,0.438-1.363,1.061l-3.895,11.643h2.596l2.143-6.302l0.356,0.994l3.72-0.002c1.037,0,1.279,0.317,1.621,1.197
		l1.565,4.147h2.499l-4.062-11.862C171.511,8.279,171.005,7.931,170.385,7.931"/>
	<path fill="#E0DED6" d="M95.333,9.643l-0.001,4.064h4.257c0.518,0,1.814-0.576,1.814-1.877c0-1.875-1.252-2.188-1.865-2.188H95.333
		z M95.346,14.498v6.137h-2.577V7.931l7.707,0.005c3.18,0,3.688,1.971,3.688,3.776c0,2.089-0.972,2.901-1.839,3.149
		c-0.975,0.392-2.157,0.495-3.311,0.53h-2.976L95.346,14.498z"/>
	<path fill="#E0DED6" d="M110.07,9.641h1.807l1.32,4.027h-4.511L110.07,9.641z M112.874,7.931h-3.831
		c-0.665,0-1.111,0.438-1.362,1.061l-3.896,11.643h2.597l2.143-6.302l0.357,0.994l3.718-0.002c1.039,0,1.281,0.317,1.622,1.197
		l1.566,4.147h2.5l-4.064-11.862C113.999,8.279,113.494,7.931,112.874,7.931"/>
	<path fill="#E0DED6" d="M177.445,20.227v-1.285h0.651c0.149,0,0.26,0.047,0.332,0.139c0.049,0.067,0.073,0.141,0.073,0.224
		c0,0.071-0.019,0.136-0.054,0.193c-0.034,0.053-0.084,0.092-0.146,0.114c0.061,0.026,0.102,0.055,0.123,0.087
		c0.026,0.048,0.041,0.127,0.041,0.239c0,0.102,0.002,0.164,0.007,0.188c0.006,0.035,0.022,0.058,0.05,0.067v0.033h-0.298
		c-0.019-0.063-0.028-0.15-0.028-0.259c0-0.098-0.011-0.161-0.03-0.189c-0.026-0.036-0.086-0.055-0.179-0.055h-0.279v0.503H177.445z
		 M177.709,19.508h0.316c0.139,0,0.208-0.06,0.208-0.176c0-0.114-0.062-0.169-0.189-0.169h-0.335V19.508z"/>
	<path fill="#E0DED6" d="M59.902,7.931l-0.025,1.724h4.932v11.021h2.564l-0.019-9.979l-1.205-1.041c0,0,4.39-0.003,5.546,0.017
		c0.381-0.017,0.595-0.362,0.653-0.769l-0.017-0.972H59.902z"/>
	<path fill="#E0DED6" d="M55.563,18.917h7.694v1.759h-8.53c-1.648,0-1.724-1.778-1.724-1.778L52.981,7.931h2.582V18.917z"/>
	<path fill="#E0DED6" d="M78.667,19.105c-3.079-0.032-4.181-2.001-4.136-4.811c0.03-1.872,0.453-4.521,4.136-4.521
		c3.681,0,4.104,2.648,4.134,4.521C82.846,17.104,81.746,19.073,78.667,19.105 M85.533,13.882c0-1.799-0.619-6.079-6.866-5.948
		c-6.249-0.131-6.867,4.149-6.867,5.948c0,0.581-0.86,6.936,6.867,7.031C86.394,20.818,85.533,14.463,85.533,13.882"/>
	<path fill="#E0DED6" d="M42.973,9.65h1.807l1.322,4.027H41.59L42.973,9.65z M45.776,7.939h-3.83c-0.665,0-1.112,0.438-1.362,1.061
		l-3.896,11.643h2.596l2.143-6.302l0.356,0.996l3.719-0.004c1.039,0,1.28,0.318,1.622,1.197l1.566,4.147h2.5L47.126,8.815
		C46.903,8.288,46.396,7.939,45.776,7.939"/>
	<path fill="#E0DED6" d="M150.963,9.931l4.927,9.84c0.232,0.503,0.735,0.863,1.337,0.863h1.43c0.666,0,1.363-0.36,1.363-1.157
		l0.048-11.496h-2.596l0.013,10.604l-4.798-9.762c-0.223-0.528-0.728-0.877-1.35-0.877h-1.529c-0.665,0-1.362,0.455-1.362,1.235
		l-0.048,11.469h2.613L150.963,9.931z"/>
	<polygon fill="#E0DED6" points="170.802,6.844 172.441,5.132 174.865,5.132 172.584,6.844 	"/>
</g>
</svg>
