<?xml version="1.0" encoding="utf-8"?>
<!-- Generator: Adobe Illustrator 16.0.4, SVG Export Plug-In . SVG Version: 6.00 Build 0)  -->
<!DOCTYPE svg PUBLIC "-//W3C//DTD SVG 1.1//EN" "http://www.w3.org/Graphics/SVG/1.1/DTD/svg11.dtd">
<svg version="1.1" id="Layer_1" xmlns="http://www.w3.org/2000/svg" xmlns:xlink="http://www.w3.org/1999/xlink" x="0px" y="0px"
	 width="75px" height="51.74px" viewBox="0 0 75 51.74" enable-background="new 0 0 75 51.74" xml:space="preserve">
<g>
	<path fill-rule="evenodd" clip-rule="evenodd" fill="#9DA095" d="M19.731,31.472c0-0.001-0.002-0.005-0.002-0.005
		C19.743,31.512,19.743,31.51,19.731,31.472z"/>
	<path fill-rule="evenodd" clip-rule="evenodd" fill="#9DA095" d="M67.725,10.784c-4.339-2.422-8.365-2.591-13.042-2.712
		C36.82,7.65,13.944,18.775,4.916,33.781h0.566c8.907-10.426,33.532-22.419,56.143-17.863c1.229,0.253,14.97,2.218,10.571,15.115
		C75.957,21.861,71.63,12.965,67.725,10.784z"/>
	<g>
		<path fill-rule="evenodd" clip-rule="evenodd" fill="#9DA095" d="M74.643,21.391C71.798,7.325,52.863-2.077,32.361,0.394
			C11.847,2.877-2.484,16.292,0.36,30.358c2.845,14.066,21.78,23.467,42.282,20.984C63.156,48.872,77.476,35.457,74.643,21.391z
			 M42.389,50.125C22.875,52.487,4.844,43.532,2.144,30.153C-0.568,16.75,13.076,3.974,32.602,1.624
			c19.526-2.362,37.545,6.581,40.257,19.984C75.559,34.986,61.927,47.763,42.389,50.125z"/>
	</g>
	<g>
		<path fill-rule="evenodd" clip-rule="evenodd" fill="#9DA095" d="M19.702,31.433c-0.209-0.695-4.365-14.312-4.365-14.312h-1.784
			L3.669,33.742h1.784l7.473-12.571l3.098,10.39c0.783,2.543,2.302,2.386,3.616,2.386c0.374,0,1.362-0.024,1.808-0.072l0.169-0.964
			C20.327,32.922,19.724,31.486,19.702,31.433z"/>
		<path fill-rule="evenodd" clip-rule="evenodd" fill="#9DA095" d="M29.812,21.665h-6.28l-0.168,0.964l0.976,0.349l-1.94,10.968
			h3.303l0.904-5.11c0.289,0,1.024,0.35,1.398,1.193l0.76,2.338c0.675,1.555,1.482,1.723,3.158,1.723
			c0.747,0,1.928-0.108,2.314-0.156l0.181-1.037c-0.422,0.024-0.735,0.012-0.856-0.024c-0.108-0.036-1.651-0.626-2.712-4.339
			c1.073-0.313,3.206-1.181,3.592-3.351C34.875,22.738,32.416,21.665,29.812,21.665z M31.131,25.312
			c-0.169,0.928-0.82,2.483-3.351,2.483h-1.109l0.807-4.52h1.157C30.468,23.275,31.36,24.022,31.131,25.312z"/>
		<path fill-rule="evenodd" clip-rule="evenodd" fill="#9DA095" d="M38.153,27.667c0.313-1.784,1.338-4.773,4.665-4.773
			c1.362,0,2.579,0.603,3.616,1.398l0.265-1.471c-1.277-0.928-2.712-1.301-4.098-1.301c-4.472,0-7.437,3.23-7.967,6.255
			c-0.422,2.375,0.289,6.135,6.231,6.315c1.796,0.048,3.351-0.374,4.062-0.578l0.289-1.603c-0.699,0.241-1.844,0.639-3.543,0.639
			C39.262,32.549,37.623,30.645,38.153,27.667z"/>
		<path fill-rule="evenodd" clip-rule="evenodd" fill="#9DA095" d="M53.135,21.581c-3.736,0-6.846,2.688-7.485,6.34
			c-0.651,3.652,1.29,6.364,5.617,6.364c5.653,0,7.388-4.773,7.653-6.316C59.475,24.883,58.209,21.581,53.135,21.581z
			 M55.874,27.969c-0.253,1.266-1.41,4.785-4.556,4.725c-2.507-0.036-3.073-2.507-2.627-4.797c0.362-1.844,1.796-4.773,4.448-4.725
			C55.934,23.208,56.283,25.811,55.874,27.969z"/>
		<path fill-rule="evenodd" clip-rule="evenodd" fill="#9DA095" d="M70.611,25.185c0.434-2.447-2.024-3.52-4.628-3.52h-6.28
			l-0.169,0.964l0.977,0.349l-1.94,10.968h3.302l0.904-5.11c0.289,0,1.024,0.35,1.398,1.193l0.759,2.338
			c0.675,1.555,1.482,1.723,3.158,1.723c0.748,0,1.929-0.108,2.314-0.156l0.181-1.037c-0.422,0.024-0.735,0.012-0.855-0.024
			c-0.109-0.036-1.651-0.626-2.712-4.339C68.092,28.222,70.226,27.354,70.611,25.185z M66.828,25.312
			c-0.168,0.928-0.819,2.483-3.351,2.483h-1.109l0.808-4.52h1.157C66.166,23.275,67.057,24.022,66.828,25.312z"/>
	</g>
</g>
</svg>
