<?xml version="1.0" encoding="utf-8"?>
<!-- Generator: Adobe Illustrator 16.0.4, SVG Export Plug-In . SVG Version: 6.00 Build 0)  -->
<!DOCTYPE svg PUBLIC "-//W3C//DTD SVG 1.1//EN" "http://www.w3.org/Graphics/SVG/1.1/DTD/svg11.dtd">
<svg version="1.1" id="Layer_1" xmlns="http://www.w3.org/2000/svg" xmlns:xlink="http://www.w3.org/1999/xlink" x="0px" y="0px"
	 width="171px" height="28.311px" viewBox="0 0 171 28.311" enable-background="new 0 0 171 28.311" xml:space="preserve">
<g>
	<path fill-rule="evenodd" clip-rule="evenodd" fill="#E0DED6" d="M12.144,4.25c0.911,0,1.442,0.607,1.442,1.442
		c0,0.759-0.151,1.518-0.151,2.353c0,0.607,0.151,1.214,0.151,1.822c0,1.062-0.986,1.594-1.897,1.594
		c-1.214,0-1.822-0.607-1.746-1.821c0-0.684,0.076-0.987-0.379-1.518C9.032,7.59,8.273,7.438,7.59,7.438
		c-2.884,0-3.188,2.808-3.188,5.085c0,2.352,0.304,4.934,3.264,4.934c0.683,0,1.366-0.077,1.821-0.532
		c0.531-0.53,0.531-0.985,0.531-1.67c0-0.53,0-0.985,0.304-1.442c0.304-0.454,0.835-0.606,1.442-0.606
		c1.442,0,2.125,1.063,2.125,2.428c0,3.492-3.264,5.085-6.375,5.085c-2.049,0-4.099-0.607-5.541-2.2C0.607,17.077,0,14.572,0,12.523
		c0-1.821,0.38-4.098,1.366-5.692C2.581,5.085,4.63,4.098,6.755,4.098c1.593,0,2.884,0.531,3.946,1.67
		C10.626,4.857,11.233,4.25,12.144,4.25L12.144,4.25z"/>
	<path fill-rule="evenodd" clip-rule="evenodd" fill="#E0DED6" d="M19.658,11.309c0,1.062-0.987,1.518-1.974,1.518
		c-1.062,0-2.048-0.835-2.048-1.974c0-2.353,3.188-2.732,4.933-2.732c1.214,0,2.732,0.076,3.719,0.683
		c1.366,0.759,1.518,2.125,1.518,3.491v4.326c0,0.303-0.076,1.062,0.379,1.062c0.152,0,0.379,0,0.531,0
		c0.759,0,1.139,0.607,1.139,1.29c0,1.29-1.291,1.745-2.353,1.745s-2.201-0.378-2.58-1.442c-1.139,0.987-2.505,1.442-3.947,1.442
		c-2.049,0-4.099-1.138-4.099-3.415c0-5.464,7.134-2.657,7.134-5.692c0-0.834-0.835-1.29-1.594-1.29
		c-0.379,0-0.759,0.076-0.759,0.531V11.309L19.658,11.309z M22.011,15.179c-0.683,0.683-3.339,0.38-3.339,1.595
		c0,0.758,0.683,1.062,1.29,1.062c1.366,0,2.049-0.835,2.049-2.202V15.179L22.011,15.179z"/>
	<path fill-rule="evenodd" clip-rule="evenodd" fill="#E0DED6" d="M30.891,12.75c0-0.304,0.076-1.594-0.379-1.594
		c-0.228,0-0.456,0.152-0.759,0.152c-0.759,0-1.062-0.607-1.062-1.291c0-0.835,0.379-1.593,1.139-1.593
		c0.683,0.076,1.138,0.228,1.594,0.228c0.531,0,0.987-0.152,1.518-0.228c0.683,0,0.759,0.455,0.759,0.987v1.745
		c0.379-1.897,1.746-2.959,3.719-2.959c1.594,0,3.036,1.214,3.036,2.883c0,1.139-0.759,2.277-1.973,2.277
		c-0.911,0-1.594-0.607-1.594-1.518c0-0.304,0.076-0.607,0.228-0.911c-2.581-0.152-2.657,3.34-2.657,5.16
		c0,0.305-0.076,1.595,0.456,1.595c0.228,0,0.455-0.152,0.759-0.152c0.759,0,0.987,0.607,0.987,1.29
		c0,0.912-0.379,1.595-1.139,1.595c-1.214,0-2.125-0.228-3.111-0.228c-0.835,0-1.746,0.228-2.581,0.228
		c-0.759,0-1.139-0.683-1.139-1.595c0-0.683,0.304-1.29,1.062-1.29c0.304,0,0.531,0.152,0.759,0.152c0.455,0,0.379-1.29,0.379-1.595
		V12.75L30.891,12.75z"/>
	<path fill-rule="evenodd" clip-rule="evenodd" fill="#E0DED6" d="M43.49,12.75c0-0.304,0.076-1.594-0.38-1.594
		c-0.303,0-0.531,0.152-0.759,0.152c-0.759,0-1.063-0.607-1.063-1.291c0-0.835,0.38-1.593,1.139-1.593
		c0.683,0.076,1.138,0.228,1.594,0.228c0.531,0,0.987-0.152,1.518-0.228c0.683,0,0.683,0.455,0.683,0.987v1.745
		c0.455-1.897,1.821-2.959,3.794-2.959c1.594,0,3.036,1.214,3.036,2.883c0,1.139-0.759,2.277-1.974,2.277
		c-0.911,0-1.669-0.607-1.669-1.518c0-0.304,0.152-0.607,0.304-0.911c-2.581-0.152-2.656,3.34-2.656,5.16
		c0,0.305-0.076,1.595,0.455,1.595c0.228,0,0.456-0.152,0.759-0.152c0.759,0,0.986,0.607,0.986,1.29
		c0,0.912-0.379,1.595-1.138,1.595c-1.214,0-2.125-0.228-3.112-0.228c-0.835,0-1.746,0.228-2.581,0.228
		c-0.759,0-1.139-0.683-1.139-1.595c0-0.683,0.304-1.29,1.063-1.29c0.228,0,0.456,0.152,0.759,0.152c0.456,0,0.38-1.29,0.38-1.595
		V12.75L43.49,12.75z"/>
	<path fill-rule="evenodd" clip-rule="evenodd" fill="#E0DED6" d="M58.214,15.027c-0.456,0-1.063-0.152-1.063,0.532
		c0,1.29,1.063,2.277,2.354,2.277c1.973,0,1.821-1.822,3.644-1.822c0.834,0,1.518,0.53,1.518,1.442c0,0.987-0.759,1.82-1.518,2.353
		c-1.139,0.683-2.429,0.91-3.72,0.91c-3.719,0-6.072-2.505-6.072-6.223c0-3.644,2.277-6.375,5.996-6.375
		c1.366,0,2.884,0.304,3.871,1.214c1.138,0.986,1.669,2.58,1.669,4.022c0,1.366-0.151,1.669-1.518,1.669H58.214L58.214,15.027z
		 M60.339,12.523c0.38,0,0.759,0.076,0.759-0.38c0-0.379-0.228-0.759-0.456-0.986c-0.379-0.304-0.759-0.455-1.214-0.455
		c-0.683,0-1.139,0.151-1.594,0.607c-0.228,0.228-0.607,0.607-0.607,0.911c0,0.379,0.759,0.304,0.987,0.304H60.339L60.339,12.523z"
		/>
	<path fill-rule="evenodd" clip-rule="evenodd" fill="#E0DED6" d="M71.042,16.089c0,0.305-0.076,1.595,0.455,1.595
		c0.228,0,0.456-0.152,0.759-0.152c0.759,0,0.986,0.607,0.986,1.29c0,0.912-0.379,1.595-1.366,1.595s-1.897-0.228-2.809-0.228
		c-0.911,0-1.746,0.228-2.505,0.228c-0.911,0-1.29-0.683-1.29-1.595c0-0.683,0.227-1.29,0.986-1.29c0.304,0,0.531,0.152,0.759,0.152
		c0.531,0,0.456-1.29,0.456-1.595v-4.174c0-0.835,0-0.911-0.759-0.911c-0.911,0-1.441-0.228-1.441-1.214
		c0-0.986,0.379-1.366,1.29-1.366c0.684,0,0.911,0.076,0.911-0.759c0.076-2.504,2.277-3.567,4.554-3.567
		c0.76,0,1.67,0.152,2.353,0.531c0.759,0.38,1.366,1.139,1.366,2.049c0,0.987-0.683,1.746-1.746,1.746
		c-0.759,0-1.518-0.531-1.518-1.367c0-0.228,0.076-0.379,0.151-0.607c-0.151-0.076-0.228-0.076-0.455-0.076
		c-0.835,0-1.139,0.532-1.139,1.291c0,0.759,0.076,0.759,0.835,0.759c0.911,0,1.594,0.076,1.594,1.214
		c0,1.062-0.456,1.366-1.443,1.366c-0.911,0-0.986-0.076-0.986,0.911V16.089L71.042,16.089z"/>
	<path fill-rule="evenodd" clip-rule="evenodd" fill="#E0DED6" d="M85.841,14.269c0,3.795-1.897,6.45-5.919,6.45
		c-3.947,0-6.072-2.428-6.072-6.3c0-3.945,2.125-6.298,6.072-6.298C83.641,8.121,85.841,10.549,85.841,14.269L85.841,14.269z
		 M79.922,11.005c-1.897,0-2.353,1.897-2.353,3.415c0,1.367,0.456,3.417,2.125,3.417c0.835,0,1.518-0.228,1.897-0.987
		c0.379-0.76,0.532-1.67,0.532-2.43C82.123,12.902,81.743,11.005,79.922,11.005L79.922,11.005L79.922,11.005z"/>
	<path fill-rule="evenodd" clip-rule="evenodd" fill="#E0DED6" d="M87.511,12.75c0-0.304,0.076-1.594-0.455-1.594
		c-0.227,0-0.455,0.152-0.758,0.152c-0.76,0-0.988-0.607-0.988-1.291c0-0.835,0.38-1.593,2.125-1.593
		c0.455,0.076,0.91,0.228,1.441,0.228c0.532,0,1.062-0.152,1.595-0.228c0.759,0,0.606,0.683,0.606,1.29v5.465
		c0,0.455,0,1.29,0.304,1.745c0.228,0.38,0.76,0.685,1.291,0.685c0.683,0,1.29-0.305,1.669-0.912
		c0.456-0.758,0.532-1.518,0.532-2.352V12.75c0-0.304,0.075-1.594-0.456-1.594c-0.228,0-0.455,0.152-0.759,0.152
		c-0.759,0-0.986-0.607-0.986-1.291c0-0.835,0.379-1.593,1.974-1.593c0.455,0.076,0.91,0.228,1.441,0.228S97.15,8.5,97.682,8.425
		c0.835,0,0.76,0.531,0.76,1.138v6.526c0,0.305-0.076,1.595,0.379,1.595c0.229,0,0.456-0.152,0.759-0.152
		c0.76,0,1.062,0.607,1.062,1.29c0,0.912-0.455,1.595-1.365,1.595c-0.607,0-1.139-0.228-1.67-0.228
		c-0.456,0-0.987,0.228-1.442,0.228c-0.835,0-0.835-0.76-0.835-1.215v-0.455c-0.835,1.29-2.505,1.973-4.022,1.973
		c-1.215,0-2.581-0.455-3.265-1.442c-0.606-0.985-0.531-2.353-0.531-3.49V12.75L87.511,12.75z"/>
	<path fill-rule="evenodd" clip-rule="evenodd" fill="#E0DED6" d="M103.753,12.75c0-0.304,0.076-1.594-0.455-1.594
		c-0.228,0-0.455,0.152-0.758,0.152c-0.759,0-0.988-0.607-0.988-1.291c0-0.835,0.38-1.593,1.139-1.593
		c0.684,0.076,1.139,0.228,1.595,0.228c0.531,0,0.986-0.152,1.518-0.228c0.684,0,0.684,0.455,0.684,0.987v1.745
		c0.455-1.897,1.821-2.959,3.795-2.959c1.594,0,2.96,1.214,2.96,2.883c0,1.139-0.684,2.277-1.974,2.277
		c-0.835,0-1.594-0.607-1.594-1.518c0-0.304,0.151-0.607,0.304-0.911c-2.581-0.152-2.657,3.34-2.657,5.16
		c0,0.305-0.075,1.595,0.456,1.595c0.228,0,0.455-0.152,0.759-0.152c0.759,0,0.987,0.607,0.987,1.29c0,0.912-0.38,1.595-1.139,1.595
		c-1.291,0-2.201-0.228-3.112-0.228c-0.835,0-1.746,0.228-2.581,0.228c-0.759,0-1.139-0.683-1.139-1.595
		c0-0.683,0.229-1.29,0.988-1.29c0.303,0,0.53,0.152,0.758,0.152c0.531,0,0.455-1.29,0.455-1.595V12.75L103.753,12.75z"/>
	<path fill-rule="evenodd" clip-rule="evenodd" fill="#E0DED6" d="M171,14.193c0,0.227-0.228,0.454-0.228,0.454l-12.523,12.449
		c-0.456,0.53-0.759,0.228-0.607-0.152c0.304-0.607,0.759-1.29,1.215-2.808c0.683-2.202,0.683-4.024,0.379-5.087
		c-0.228-0.985-1.442-3.035-4.099-3.035c-3.415,0-4.401,3.112-4.325,4.25c0.075,0.76,0,1.897,1.213,2.96
		c0.911,0.76,1.746,0.532,1.974,0.457c0.228,0,0.684-0.305,0.684,0.455c0,0.835-0.759,1.897-1.215,2.428
		c-0.531,0.457-2.2,1.747-4.629,1.747c-1.442,0-3.188-0.607-4.402-2.05c-0.911-1.062-1.519-2.277-2.05-4.022
		c-1.062-3.189-1.214-5.542-1.214-8.046c0-2.277,0.228-4.781,1.214-7.969c0.456-1.67,1.291-3.188,2.05-4.174
		C145.574,0.607,147.396,0,148.838,0c2.429,0,4.098,1.29,4.629,1.821c0.456,0.456,1.215,1.518,1.215,2.429
		c0,0.683-0.456,0.379-0.684,0.379c-0.228-0.076-1.062-0.303-1.974,0.456c-1.213,1.062-1.138,2.277-1.213,2.96
		c-0.076,1.214,0.91,4.25,4.325,4.25c2.656,0,3.871-1.974,4.099-3.036c0.304-1.062,0.304-2.884-0.379-5.009
		c-0.456-1.594-0.911-2.201-1.215-2.884c-0.151-0.304,0.151-0.683,0.607-0.152l12.523,12.447C170.772,13.662,171,13.889,171,14.193
		L171,14.193z"/>
	<path fill-rule="evenodd" clip-rule="evenodd" fill="#E0DED6" d="M125.006,14.041c0,0.305,0.303,0.531,0.303,0.531l13.282,12.752
		c0.38,0.303,0.456,0,0.38-0.228c-0.076-0.152-0.152-0.228-0.531-0.835c-3.644-5.237-3.567-12.221-3.567-12.221
		s-0.076-6.982,3.567-12.144c0.379-0.607,0.455-0.683,0.531-0.91c0.076-0.228,0-0.531-0.38-0.228L125.309,13.51
		C125.309,13.51,125.006,13.738,125.006,14.041L125.006,14.041z"/>
</g>
</svg>
