<?xml version="1.0" encoding="utf-8"?>
<!-- Generator: Adobe Illustrator 16.0.4, SVG Export Plug-In . SVG Version: 6.00 Build 0)  -->
<!DOCTYPE svg PUBLIC "-//W3C//DTD SVG 1.1//EN" "http://www.w3.org/Graphics/SVG/1.1/DTD/svg11.dtd">
<svg version="1.1" id="Layer_1" xmlns="http://www.w3.org/2000/svg" xmlns:xlink="http://www.w3.org/1999/xlink" x="0px" y="0px"
	 width="34px" height="21.371px" viewBox="34.407 39.344 34 21.371" enable-background="new 34.407 39.344 34 21.371"
	 xml:space="preserve">
<g id="Your_Icon">
	<path fill="#2F352F" d="M42.867,49.667l-0.022-0.022c-0.268-0.262-0.623-0.406-1-0.406c-0.39,0-0.753,0.152-1.024,0.429l-2.364,2.4
		c-0.551,0.563-0.541,1.472,0.024,2.022l0.022,0.022c0.268,0.262,0.623,0.406,1,0.406c0.39,0,0.753-0.152,1.023-0.429l2.364-2.4
		C43.441,51.127,43.432,50.219,42.867,49.667z"/>
	<path fill="#2F352F" d="M45.772,51.808l-0.023-0.022c-0.268-0.262-0.623-0.406-1-0.406c-0.39,0-0.753,0.152-1.024,0.429l-2.363,2.4
		c-0.551,0.564-0.541,1.472,0.023,2.022l0.022,0.022c0.268,0.262,0.623,0.406,1,0.406c0.39,0,0.753-0.151,1.023-0.429l2.364-2.4
		C46.347,53.267,46.336,52.358,45.772,51.808z"/>
	<path fill="#2F352F" d="M48.865,53.693l-0.023-0.022c-0.268-0.262-0.623-0.405-1-0.405c-0.39,0-0.752,0.152-1.023,0.429l-2.364,2.4
		c-0.551,0.563-0.541,1.472,0.024,2.022L44.5,58.14c0.268,0.262,0.623,0.405,1,0.405c0.39,0,0.753-0.152,1.024-0.429l2.363-2.4
		C49.439,55.152,49.428,54.244,48.865,53.693z"/>
	<path fill="#2F352F" d="M51.77,55.75l-0.023-0.023c-0.268-0.261-0.622-0.405-1-0.405c-0.39,0-0.753,0.152-1.023,0.429l-2.364,2.4
		c-0.552,0.563-0.541,1.471,0.023,2.022l0.023,0.022c0.267,0.262,0.623,0.406,1,0.406c0.39,0,0.754-0.152,1.024-0.43l2.364-2.4
		C52.345,57.208,52.333,56.301,51.77,55.75z"/>
	<path fill="#2F352F" d="M54.31,45.309c-2.504,2.369-4.442,3.255-4.525,3.292l-0.016,0.006c-0.373,0.119-0.818,0.181-1.286,0.181
		c-0.594,0-1.085-0.098-1.326-0.182c-0.485-0.169-1.312-0.968-1.669-1.611c-0.368-0.663-0.049-1.666-0.034-1.708l0.011-0.038
		l5.496-5.183c-0.263-0.262-0.785-0.395-1.555-0.395c-2.099,0-5.276,1.015-5.455,1.072c-0.239,0.106-0.586,0.16-1.031,0.16
		c-0.795,0-1.658-0.167-1.796-0.195c-0.001,0-0.003,0-0.004,0c-0.466,0-1.687-0.733-1.884-0.853
		c-0.199-0.07-0.389-0.106-0.562-0.106c-0.469,0-0.691,0.262-0.732,0.315l-2.649,6.044c-0.832,1.564-0.893,2.02-0.885,2.136
		c1.455,0.354,3.382,2.442,3.862,2.982l2.757-2.694l0.043-0.009c0.235-0.049,0.461-0.075,0.672-0.075
		c1.695,0,2.17,1.565,2.278,2.062c0.139-0.013,0.275-0.021,0.405-0.021c2.007,0,2.424,1.607,2.509,2.155
		c0.28-0.057,0.545-0.085,0.792-0.085c1.84,0,2.264,1.546,2.354,2.064c0.968-0.146,1.713,0.062,2.212,0.611
		c0.794,0.871,0.67,2.284,0.665,2.344l-0.006,0.055l-2.729,2.773c0.381,0.203,0.743,0.306,1.08,0.306
		c1.352,0,1.939-1.663,1.945-1.681l0.043-0.124l0.129,0.023c0.226,0.04,0.44,0.061,0.64,0.061c1.824,0,1.917-1.723,1.921-1.796
		l0.008-0.19l0.185,0.048c0.366,0.095,0.709,0.143,1.018,0.143c1.901,0,2.091-1.79,2.098-1.865l0.016-0.168l0.166,0.031
		c0.281,0.053,0.545,0.079,0.782,0.079c0.636,0,1.112-0.189,1.417-0.562c0.587-0.717,0.375-1.894,0.363-1.961
		C61.533,50.771,55.2,45.976,54.31,45.309z"/>
	<path fill="#2F352F" d="M65.012,40.548l-0.004-0.019c-0.155-0.754-0.616-0.867-0.876-0.867c-0.028,0-0.05,0.001-0.067,0.003
		c-1.396,1.088-2.919,1.251-3.705,1.251c-0.302,0-0.49-0.024-0.52-0.028c-1.395-0.136-3.119-0.729-3.192-0.755l-0.017-0.007
		c-1.064-0.52-1.975-0.783-2.708-0.783c-0.737,0-1.019,0.277-1.021,0.281c-3.153,3.379-6.089,5.615-6.425,5.867
		c-0.533,1.18,0.858,2.151,1.041,2.271c0.38,0.093,0.736,0.139,1.059,0.139c0.535,0,0.795-0.131,0.798-0.132l0.036-0.018
		l0.051,0.001c0.823,0,3.785-2.474,4.858-3.427l0.077-0.069l0.093,0.045c3.569,1.751,8.086,7.001,8.342,7.301
		c0.25,0.189,0.482,0.285,0.69,0.285c0.242,0,0.369-0.133,0.374-0.139l0.015-0.015l3.649-3.047l0.025-0.009
		c0.406-0.149,0.665-0.357,0.77-0.615c0.119-0.293-0.004-0.564-0.006-0.566L65.012,40.548z"/>
</g>
</svg>
