<?xml version="1.0" encoding="utf-8"?>
<!-- Generator: Adobe Illustrator 16.0.4, SVG Export Plug-In . SVG Version: 6.00 Build 0)  -->
<!DOCTYPE svg PUBLIC "-//W3C//DTD SVG 1.1//EN" "http://www.w3.org/Graphics/SVG/1.1/DTD/svg11.dtd">
<svg version="1.1" id="Layer_1" xmlns="http://www.w3.org/2000/svg" xmlns:xlink="http://www.w3.org/1999/xlink" x="0px" y="0px"
	 width="32px" height="27.994px" viewBox="34.001 36.003 32 27.994" enable-background="new 34.001 36.003 32 27.994"
	 xml:space="preserve">
<g>
	<g id="study_6_">
		<path fill="#2F352F" d="M66.001,42.003c0,1.399-0.962,2.599-2.331,2.918L61,45.542l-11,2.462l-10.999-2.462l-2.682-0.62
			c-1.37-0.319-2.319-1.52-2.319-2.918c0-1.412,0.95-2.612,2.319-2.931l13-2.999c0.229-0.051,0.46-0.07,0.68-0.07
			s0.44,0.019,0.661,0.07l13.009,2.999C65.039,39.392,66.001,40.592,66.001,42.003z"/>
		<path fill="#2F352F" d="M62.997,46.998v9.001c0,0.552,0.447,0.999,0.999,0.999c0.553,0,0.999-0.447,0.999-0.999v-9.001
			c0-0.553-0.446-0.999-0.999-0.999C63.444,45.999,62.997,46.445,62.997,46.998z"/>
		<path fill="#2F352F" d="M63.996,57.998c-1.104,0-2,2.896-2,3.998c0,1.104,0.896,2.001,2,2.001c1.103,0,2-0.896,2-2.001
			C65.996,60.894,65.099,57.998,63.996,57.998z"/>
	</g>
	<g id="study_5_">
		<path fill="#2F352F" d="M50.68,48.917c-0.239,0.051-0.459,0.081-0.679,0.081s-0.44-0.029-0.661-0.081l-8.338-1.919v8
			c0,1.1,2.999,3,8.999,3c6,0,8.999-1.9,8.999-3v-8L50.68,48.917z"/>
	</g>
</g>
</svg>
