<?xml version="1.0" encoding="utf-8"?>
<!-- Generator: Adobe Illustrator 16.0.4, SVG Export Plug-In . SVG Version: 6.00 Build 0)  -->
<!DOCTYPE svg PUBLIC "-//W3C//DTD SVG 1.1//EN" "http://www.w3.org/Graphics/SVG/1.1/DTD/svg11.dtd">
<svg version="1.1" id="Layer_1" xmlns="http://www.w3.org/2000/svg" xmlns:xlink="http://www.w3.org/1999/xlink" x="0px" y="0px"
	 width="30px" height="29.946px" viewBox="34.732 34.886 30 29.946" enable-background="new 34.732 34.886 30 29.946"
	 xml:space="preserve">
<path fill="#2F352F" d="M47.715,35.381c2.942-0.765,3.643-0.643,2.103,0.368c-2.056,0.448-3.798,1.243-5.227,2.388
	c-1.402,1.17-2.417,2.258-3.045,3.265c0.994,3.325,1.28,5.598,0.858,6.82c-0.555,1.239-1.118,1.355-1.69,0.349
	c0.34,1.265,0.237,2.252-0.31,2.962c-0.421,0.503-0.856,0.469-1.303-0.104c-0.697,1.812-1.536,2.84-2.516,3.084
	c-0.039,0-0.064-0.013-0.078-0.038c-0.748-1.282-0.993-2.89-0.735-4.82c-0.628-0.069-0.961-0.458-1-1.168
	c-0.177-1.088,0.239-1.938,1.245-2.549c-0.98,0.138-1.273-0.413-0.878-1.651c0.013-0.043,0.039-0.112,0.078-0.207
	c0.422-1.213,1.839-2.147,4.252-2.8c0.327-0.095,0.667-0.183,1.02-0.265C42.368,38.021,44.776,36.143,47.715,35.381z M58.29,61.313
	c0.12,0.224,0.165,0.44,0.136,0.651c-0.043,0.297-0.236,0.576-0.581,0.838c-0.843,0.724-1.782,0.824-2.819,0.304
	c0.628,0.749,0.329,1.295-0.896,1.64c-0.057,0-0.132,0.006-0.227,0.02c-1.265,0.296-2.823-0.398-4.678-2.085
	c-0.258-0.206-0.503-0.444-0.736-0.716c-0.043,0-0.084,0-0.122,0h-0.329c-3.347-0.073-6.089-1.086-8.227-3.039
	c-2.215-2.068-2.486-2.729-0.813-1.98c1.51,1.51,3.123,2.544,4.839,3.104c1.755,0.585,3.217,0.871,4.387,0.858
	c2.275-2.629,4.045-4.1,5.31-4.414c1.334-0.202,1.736,0.207,1.207,1.226c0.886-0.967,1.77-1.389,2.651-1.265
	c0.641,0.069,0.858,0.438,0.652,1.104c1.893-0.409,3.206-0.261,3.941,0.444c-0.013,0.043-0.02,0.071-0.02,0.084
	C61.275,59.434,60.049,60.509,58.29,61.313z M57.928,36.704c0.366-0.503,0.883-0.598,1.549-0.284
	c1.008,0.421,1.525,1.21,1.556,2.368c0.379-0.925,0.989-0.918,1.832,0.02c0.057,0.056,0.112,0.125,0.168,0.207
	c0.83,0.968,0.932,2.663,0.304,5.084c-0.082,0.34-0.17,0.673-0.265,1c1.647,3.145,2.069,6.173,1.265,9.085
	c-0.8,2.917-1.269,3.469-1.406,1.658c0.666-2.018,0.85-3.923,0.548-5.717c-0.297-1.824-0.719-3.254-1.265-4.291
	c-3.377-0.805-5.499-1.697-6.368-2.678c-0.805-1.075-0.628-1.62,0.529-1.632c-1.252-0.353-2.041-0.938-2.368-1.755
	c-0.22-0.61,0.025-0.979,0.736-1.103c-1.239-1.484-1.724-2.716-1.452-3.697c0.043-0.026,0.078-0.032,0.104-0.02
	C54.876,34.937,56.389,35.521,57.928,36.704z M40.223,42.627c-1.922,2.723-2.966,5.971-3.129,9.743
	C37.86,48.968,38.902,45.72,40.223,42.627z M61.787,44.079c-1.402-3.011-3.685-5.542-6.847-7.594
	C57.487,38.864,59.77,41.395,61.787,44.079z M59.903,58.738c-3.321,1.17-6.635,2.035-9.943,2.594
	C53.311,61.483,56.625,60.618,59.903,58.738z"/>
</svg>
