<?xml version="1.0" encoding="utf-8"?>
<!-- Generator: Adobe Illustrator 16.0.4, SVG Export Plug-In . SVG Version: 6.00 Build 0)  -->
<!DOCTYPE svg PUBLIC "-//W3C//DTD SVG 1.1//EN" "http://www.w3.org/Graphics/SVG/1.1/DTD/svg11.dtd">
<svg version="1.1" id="Layer_1" xmlns="http://www.w3.org/2000/svg" xmlns:xlink="http://www.w3.org/1999/xlink" x="0px" y="0px"
	 width="24px" height="27.784px" viewBox="31.191 36.108 24 27.784" enable-background="new 31.191 36.108 24 27.784"
	 xml:space="preserve">
<g>
	<path fill="#2F352F" d="M54.891,41.823c-0.19-0.148-0.433-0.182-0.646-0.088l-10.328,4.472c-0.449,0.195-1.011,0.29-1.588,0.29
		c-0.805,0.002-1.638-0.186-2.218-0.441c-0.208-0.088-0.381-0.188-0.504-0.277c0.045-0.022,0.096-0.045,0.156-0.068l9.396-4.066
		l1.402,0.6v-1.752c0-0.261-0.11-0.508-0.301-0.654c-0.19-0.148-0.434-0.182-0.645-0.089L39.276,44.22
		c-0.318,0.129-0.592,0.287-0.824,0.517c-0.228,0.222-0.424,0.59-0.421,0.998c0,0.011,0.003,0.029,0.003,0.029v15.748
		c0,0.006-0.002,0.014-0.002,0.021c0,0.006,0.002,0.008,0.002,0.013v0.018h0.002c0.023,0.558,0.299,0.913,0.565,1.148
		c0.834,0.735,2.235,1.147,3.725,1.181c0.706,0,1.422-0.112,2.084-0.392l10.33-4.478c0.273-0.111,0.451-0.408,0.451-0.735V42.479
		C55.19,42.218,55.078,41.971,54.891,41.823z"/>
	<path fill="#2F352F" d="M48.34,38.829c-0.019-0.236-0.114-0.458-0.29-0.594c-0.189-0.148-0.433-0.182-0.647-0.089l-10.328,4.472
		c-0.449,0.194-1.012,0.29-1.588,0.29c-0.805,0.001-1.638-0.187-2.219-0.441c-0.206-0.088-0.38-0.188-0.503-0.276
		c0.045-0.022,0.097-0.045,0.156-0.068l9.395-4.067l1.4,0.6v-1.752c0-0.261-0.113-0.508-0.303-0.654
		c-0.188-0.148-0.436-0.183-0.648-0.089l-10.328,4.472c-0.318,0.128-0.591,0.286-0.823,0.517c-0.229,0.222-0.424,0.59-0.421,0.999
		c0,0.011,0.003,0.029,0.003,0.029v15.749c0,0.006-0.001,0.015-0.001,0.021c0,0.004,0.001,0.006,0.001,0.022v0.021h0.002
		c0.022,0.558,0.3,0.913,0.565,1.146c0.834,0.735,2.235,1.135,3.726,1.172c0.402,0,0.806-0.052,1.204-0.127V45.768
		c-0.011-0.748,0.289-1.467,0.815-1.984c0.341-0.336,0.757-0.603,1.272-0.808L48.34,38.829z"/>
</g>
</svg>
