<?xml version="1.0" encoding="utf-8"?>
<!-- Generator: Adobe Illustrator 16.0.4, SVG Export Plug-In . SVG Version: 6.00 Build 0)  -->
<!DOCTYPE svg PUBLIC "-//W3C//DTD SVG 1.1//EN" "http://www.w3.org/Graphics/SVG/1.1/DTD/svg11.dtd">
<svg version="1.1" id="Layer_1" xmlns="http://www.w3.org/2000/svg" xmlns:xlink="http://www.w3.org/1999/xlink" x="0px" y="0px"
	 width="35px" height="21.876px" viewBox="-9.5 -2.938 35 21.876" enable-background="new -9.5 -2.938 35 21.876"
	 xml:space="preserve">
<path fill="#2F352F" d="M-0.75-2.936c-2.406,0-4.375,2.406-4.375,5.468S-3.156,8-0.75,8c0.875,0,1.722-0.438,2.599-1.094
	C1.629,6.251,1.438,5.594,1.438,4.72c0-1.969,0.628-3.528,1.505-5.06C2.287-1.872,0.784-2.938-0.75-2.938V-2.936z M16.749-2.936
	c-1.531,0-3.033,1.064-3.691,2.598c0.874,1.532,1.504,3.091,1.504,5.06c0,0.875-0.192,1.532-0.41,2.188
	c0.874,0.656,1.722,1.094,2.598,1.094c2.405,0,4.375-2.407,4.375-5.469s-1.97-5.468-4.375-5.468V-2.936z M8-0.749
	c-2.417,0-4.375,2.448-4.375,5.469c0,3.02,1.958,5.468,4.375,5.468c2.418,0,4.375-2.448,4.375-5.468
	C12.374,1.699,10.418-0.749,8-0.749z M-5.331,8C-7.518,8.22-9.5,9.97-9.5,12.375v4.375h6.562v-2.188
	c0-1.749,0.685-3.281,1.778-4.375C-2.691,9.97-4.234,9.312-5.328,8H-5.331z M21.329,8c-1.094,1.312-2.637,1.969-4.17,2.187
	c1.094,1.094,1.779,2.626,1.779,4.375v2.188H25.5v-4.375C25.5,9.97,23.521,8.22,21.333,8H21.329z M3.418,10.188
	c-2.188,0.219-4.168,1.97-4.168,4.375v4.375h17.499v-4.375c0-2.405-1.982-4.156-4.17-4.375C11.268,11.5,9.749,12.375,8,12.375
	S4.731,11.5,3.418,10.188z"/>
</svg>
