<?xml version="1.0" encoding="utf-8"?>
<!-- Generator: Adobe Illustrator 16.0.4, SVG Export Plug-In . SVG Version: 6.00 Build 0)  -->
<!DOCTYPE svg PUBLIC "-//W3C//DTD SVG 1.1//EN" "http://www.w3.org/Graphics/SVG/1.1/DTD/svg11.dtd">
<svg version="1.1" id="All_glyphs" xmlns="http://www.w3.org/2000/svg" xmlns:xlink="http://www.w3.org/1999/xlink" x="0px" y="0px"
	 width="13px" height="13px" viewBox="0 0 13 13" enable-background="new 0 0 13 13" xml:space="preserve">
<g>
	<path fill="#FFFFFF" d="M12.708,10.999L9.599,7.889c0.469-0.77,0.739-1.674,0.739-2.642C10.337,2.436,7.901,0,5.09,0
		C2.279,0,0,2.279,0,5.09c0,2.812,2.436,5.247,5.247,5.247c0.935,0,1.81-0.253,2.563-0.693l3.126,3.126
		c0.306,0.306,0.802,0.306,1.107,0l0.775-0.775C13.125,11.689,13.014,11.304,12.708,10.999z M1.566,5.09
		c0-1.946,1.578-3.524,3.523-3.524c1.947,0,3.681,1.734,3.681,3.681S7.193,8.771,5.247,8.771C3.301,8.771,1.566,7.037,1.566,5.09z"
		/>
</g>
</svg>
