<?xml version="1.0" encoding="utf-8"?>
<!-- Generator: Adobe Illustrator 16.0.4, SVG Export Plug-In . SVG Version: 6.00 Build 0)  -->
<!DOCTYPE svg PUBLIC "-//W3C//DTD SVG 1.1//EN" "http://www.w3.org/Graphics/SVG/1.1/DTD/svg11.dtd">
<svg version="1.1" id="Layer_1" xmlns="http://www.w3.org/2000/svg" xmlns:xlink="http://www.w3.org/1999/xlink" x="0px" y="0px"
	 width="30px" height="30.582px" viewBox="35.38 29.84 30 30.582" enable-background="new 35.38 29.84 30 30.582"
	 xml:space="preserve">
<g id="Your_Icon">
	<path fill="#2F352F" d="M63.688,53.092l-6.616,1.887c1.777-2.132,3.683-5.351,3.955-8.194c0.31-3.225-1.311-6.218-4.124-7.625
		c-2.367-1.185-4.957-0.9-6.758,0.74c-0.317,0.29-0.34,0.783-0.05,1.101c0.291,0.318,0.784,0.343,1.101,0.051
		c1.312-1.196,3.231-1.387,5.011-0.498c1.694,0.848,3.568,2.95,3.27,6.082c-0.306,3.188-2.709,6.528-5.111,8.705
		c0,0-3.172,0.896-4.888,0.297c-0.453-0.159-0.772-0.285-1.023-0.536c-0.254-0.255-0.354-0.62-0.31-0.96
		c0.068-0.521,0.666-0.828,1.172-1.058l0.038-0.016l6.13-2.105c0.004-0.002,0.009-0.004,0.014-0.006
		c0.701-0.317,1.066-1.098,0.859-1.84c-0.209-0.747-0.936-1.228-1.704-1.126c0,0-7.821,1.354-10.919,1.755
		c-0.917,0.119-3.445,0.604-4.293,0.987c-1.601,0.473-2.916,1.731-3.157,2.312c-0.253,0.817-0.53,2.132-0.575,2.398l-0.314,2.123
		c-0.133,0.798,0.616,1.702,1.996,1.948c0,0,3.884,0.877,6.134,0.903c3.179,0.037,5.575-0.164,8.067-0.705
		c3.696-0.802,12.782-3.762,12.782-3.762c0.035-0.013-0.036,0.017,0,0c1.078-0.442,1.181-1.188,0.812-2.059
		C64.874,53.158,64.477,52.982,63.688,53.092z"/>
	<path fill="#2F352F" d="M61.668,37.233c-0.938,1.016-1.477,2.254-1.64,3.527c1.256-0.265,2.445-0.904,3.383-1.92
		c0.936-1.015,1.475-2.254,1.636-3.528C63.792,35.577,62.602,36.217,61.668,37.233z"/>
	<path fill="#2F352F" d="M60.276,34.763c-0.084-1.862-0.758-3.559-1.826-4.923c-0.938,1.456-1.456,3.204-1.369,5.066
		c0.084,1.863,0.759,3.559,1.824,4.925C59.844,38.375,60.361,36.627,60.276,34.763z"/>
	<path fill="#2F352F" d="M55.925,44.479c0.947,0.34,1.932,0.351,2.832,0.098c-0.536-0.767-1.303-1.383-2.25-1.724
		c-0.948-0.339-1.932-0.349-2.832-0.096C54.209,43.523,54.976,44.141,55.925,44.479z"/>
</g>
</svg>
