<?xml version="1.0" encoding="utf-8"?>
<!-- Generator: Adobe Illustrator 16.0.4, SVG Export Plug-In . SVG Version: 6.00 Build 0)  -->
<!DOCTYPE svg PUBLIC "-//W3C//DTD SVG 1.1//EN" "http://www.w3.org/Graphics/SVG/1.1/DTD/svg11.dtd">
<svg version="1.1" id="Layer_1" xmlns="http://www.w3.org/2000/svg" xmlns:xlink="http://www.w3.org/1999/xlink" x="0px" y="0px"
	 width="14px" height="14.012px" viewBox="42.757 43.353 14 14.012" enable-background="new 42.757 43.353 14 14.012"
	 xml:space="preserve">
<path fill="#39B2A5" d="M56.431,49.662l-7.375,7.376c-0.437,0.436-1.145,0.436-1.58,0l-4.391-4.392
	c-0.436-0.437-0.436-1.144,0-1.579l7.376-7.376c0.246-0.246,0.577-0.348,0.898-0.317l-0.021-0.021l3.837,0.853v0
	c0.162,0.025,0.553,0.152,0.711,0.718l0.789,3.526C56.839,48.854,56.758,49.335,56.431,49.662z M54.586,45.535
	c-0.455-0.454-1.191-0.454-1.645,0c-0.455,0.455-0.455,1.191-0.001,1.646s1.19,0.455,1.646,0S55.041,45.99,54.586,45.535z"/>
</svg>
