<?xml version="1.0" encoding="utf-8"?>
<!-- Generator: Adobe Illustrator 16.0.4, SVG Export Plug-In . SVG Version: 6.00 Build 0)  -->
<!DOCTYPE svg PUBLIC "-//W3C//DTD SVG 1.1//EN" "http://www.w3.org/Graphics/SVG/1.1/DTD/svg11.dtd">
<svg version="1.1" id="All_glyphs" xmlns="http://www.w3.org/2000/svg" xmlns:xlink="http://www.w3.org/1999/xlink" x="0px" y="0px"
	 width="30px" height="24.381px" viewBox="0 0 30 24.381" enable-background="new 0 0 30 24.381" xml:space="preserve">
<path fill="#2F352F" d="M30,2.886c-1.104,0.489-2.29,0.82-3.535,0.97c1.271-0.762,2.247-1.969,2.707-3.405
	c-1.19,0.705-2.507,1.218-3.909,1.493C24.14,0.747,22.54,0,20.771,0c-3.399,0-6.155,2.756-6.155,6.154
	c0,0.482,0.054,0.952,0.159,1.402C9.66,7.301,5.123,4.85,2.088,1.127c-0.53,0.908-0.833,1.966-0.833,3.094
	c0,2.135,1.086,4.019,2.738,5.123c-1.008-0.032-1.958-0.309-2.788-0.77C1.204,8.6,1.204,8.625,1.204,8.651
	c0,2.981,2.122,5.47,4.938,6.035c-0.516,0.141-1.06,0.216-1.622,0.216c-0.396,0-0.782-0.038-1.158-0.11
	c0.783,2.445,3.057,4.225,5.75,4.274c-2.107,1.65-4.761,2.635-7.645,2.635c-0.497,0-0.986-0.029-1.468-0.087
	c2.724,1.747,5.958,2.767,9.435,2.767c11.321,0,17.512-9.379,17.512-17.513c0-0.267-0.006-0.532-0.018-0.797
	C28.131,5.204,29.175,4.12,30,2.886z"/>
</svg>
